<svg version="1.2" xmlns="http://www.w3.org/2000/svg" viewBox="0 0 800 800" width="800" height="800">
	<title>14043-ai</title>
	<defs>
		<clipPath clipPathUnits="userSpaceOnUse" id="cp1">
			<path d="m0 0h800v800h-800z"/>
		</clipPath>
		<clipPath clipPathUnits="userSpaceOnUse" id="cp2">
			<path d="m0 0v800h800v-800z"/>
		</clipPath>
		<clipPath clipPathUnits="userSpaceOnUse" id="cp3">
			<path d="m0 0h800v800h-800z"/>
		</clipPath>
		<clipPath clipPathUnits="userSpaceOnUse" id="cp4">
			<path d="m0 0h800v800h-800z"/>
		</clipPath>
		<clipPath clipPathUnits="userSpaceOnUse" id="cp5">
			<path d="m0 0h800v800h-800z"/>
		</clipPath>
		<clipPath clipPathUnits="userSpaceOnUse" id="cp6">
			<path d="m0 0v800h800v-800z"/>
		</clipPath>
		<clipPath clipPathUnits="userSpaceOnUse" id="cp7">
			<path d="m0 0h800v800h-800z"/>
		</clipPath>
		<clipPath clipPathUnits="userSpaceOnUse" id="cp8">
			<path d="m0 0v800h800v-800z"/>
		</clipPath>
		<clipPath clipPathUnits="userSpaceOnUse" id="cp9">
			<path d="m0 0h800v800h-800z"/>
		</clipPath>
		<clipPath clipPathUnits="userSpaceOnUse" id="cp10">
			<path d="m0 0v800h800v-800z"/>
		</clipPath>
		<clipPath clipPathUnits="userSpaceOnUse" id="cp11">
			<path d="m0 0h800v800h-800z"/>
		</clipPath>
		<clipPath clipPathUnits="userSpaceOnUse" id="cp12">
			<path d="m0 0h800v800h-800z"/>
		</clipPath>
		<clipPath clipPathUnits="userSpaceOnUse" id="cp13">
			<path d="m0 0h800v800h-800z"/>
		</clipPath>
		<clipPath clipPathUnits="userSpaceOnUse" id="cp14">
			<path d="m0 0h800v800h-800z"/>
		</clipPath>
		<clipPath clipPathUnits="userSpaceOnUse" id="cp15">
			<path d="m0 0v800h800v-800z"/>
		</clipPath>
		<clipPath clipPathUnits="userSpaceOnUse" id="cp16">
			<path d="m0 0h800v800h-800z"/>
		</clipPath>
		<clipPath clipPathUnits="userSpaceOnUse" id="cp17">
			<path d="m0 0v800h800v-800z"/>
		</clipPath>
		<clipPath clipPathUnits="userSpaceOnUse" id="cp18">
			<path d="m0 0h800v800h-800z"/>
		</clipPath>
		<clipPath clipPathUnits="userSpaceOnUse" id="cp19">
			<path d="m0 0h800v800h-800z"/>
		</clipPath>
		<clipPath clipPathUnits="userSpaceOnUse" id="cp20">
			<path d="m0 0h800v800h-800z"/>
		</clipPath>
		<clipPath clipPathUnits="userSpaceOnUse" id="cp21">
			<path d="m0 0v800h800v-800z"/>
		</clipPath>
		<clipPath clipPathUnits="userSpaceOnUse" id="cp22">
			<path d="m0 0h800v800h-800z"/>
		</clipPath>
		<clipPath clipPathUnits="userSpaceOnUse" id="cp23">
			<path d="m0 0v800h800v-800z"/>
		</clipPath>
	</defs>
	<style>
		.s0 { fill: #6cb2f0 } 
	</style>
	<g id="Layer 1">
		<g id="&lt;Group&gt;">
			<g id="&lt;Group&gt;">
				<g id="&lt;Group&gt;">
					<g id="&lt;Clip Group&gt;" clip-path="url(#cp1)">
					</g>
					<g id="&lt;Clip Group&gt;" clip-path="url(#cp2)">
					</g>
				</g>
				<g id="&lt;Group&gt;">
					<g id="&lt;Clip Group&gt;" clip-path="url(#cp3)">
					</g>
					<g id="&lt;Clip Group&gt;" clip-path="url(#cp4)">
					</g>
					<g id="&lt;Clip Group&gt;" clip-path="url(#cp5)">
					</g>
				</g>
				<g id="&lt;Clip Group&gt;" clip-path="url(#cp6)">
				</g>
				<g id="&lt;Group&gt;">
					<g id="&lt;Clip Group&gt;" clip-path="url(#cp7)">
					</g>
					<g id="&lt;Clip Group&gt;" clip-path="url(#cp8)">
					</g>
				</g>
			</g>
			<g id="&lt;Group&gt;">
				<g id="&lt;Group&gt;">
					<g id="&lt;Clip Group&gt;" clip-path="url(#cp9)">
					</g>
					<g id="&lt;Clip Group&gt;" clip-path="url(#cp10)">
					</g>
				</g>
				<g id="&lt;Group&gt;">
					<g id="&lt;Clip Group&gt;" clip-path="url(#cp11)">
					</g>
					<g id="&lt;Clip Group&gt;" clip-path="url(#cp12)">
						<g id="&lt;Group&gt;">
							<g id="&lt;Group&gt;">
								<g id="&lt;Group&gt;">
									<g id="&lt;Group&gt;" style="opacity: .1">
										<g id="&lt;Group&gt;">
											<path id="&lt;Path&gt;" class="s0" d="m-152.9 399.1l49.4-49.3-3.1-3-48.1 48.1-82.2-1.1-90.4 90.4h-34.5l-78.5 78.5 0.1 92.2h4.2l0.1-90.5 75.9-75.9h34.5l90.3-90.3z"/>
										</g>
										<g id="&lt;Group&gt;">
											<path id="&lt;Path&gt;" class="s0" d="m-358.7 730.3l82.7-82.7v-116.2l59.2-59.2h110.6l191.2-191.1v-89.4l63.3-63.4-3-3-64.6 64.7-0.1 89.3-188.6 188.6h-110.6l-61.6 61.8-0.1 116.1-81.4 81.5z"/>
										</g>
										<g id="&lt;Group&gt;">
											<path id="&lt;Path&gt;" class="s0" d="m120.8 331.6l129.7-129.7v-45.7l93.8-93.8-3.1-3-95 95v45.7l-127.2 127.2h-155.9l-119 119.1-108.5-0.1-144 144.1v48.4l-23.9 23.9 3 3.1 25.2-25.2v-48.4l141.5-141.5h108.4l119.1-119.1z"/>
										</g>
										<g id="&lt;Group&gt;">
											<path id="&lt;Path&gt;" class="s0" d="m32.1 785.9l52.8-52.9 0.1-108.6 69-69.1v-306.6l56.2-56.3-3-3.1-57.5 57.6 0.1 306.6-69.1 69.1v108.6l-51.7 51.6z"/>
										</g>
										<g id="&lt;Group&gt;">
											<path id="&lt;Path&gt;" class="s0" d="m-203.2 681l77.1-77v-62l169.3-169.3-6-6.1-171.9 171.8-0.1 61.9-72.1 72.2-78.6-0.1-68.6 68.6 6.1 6 66-66z"/>
										</g>
										<g id="&lt;Group&gt;">
											<path id="&lt;Path&gt;" class="s0" d="m-11.7 603.2l122.4-122.5-3-2.9-121.2 121.2h-76.2l-132.5 132.4h-49.3l-51.1 51.2 3 3 49.9-49.8h49.2l132.7-132.5z"/>
										</g>
										<g id="&lt;Group&gt;">
											<path id="&lt;Path&gt;" class="s0" d="m-42.4 746.5l54.2-54.3-0.1-231.7 75-75 111.1 0.1 182.3-182.3h61.9l43.9-43.9-6.1-6.1-41.3 41.4-62 0.1-182.2 182.1h-111.2l-80 80 0.1 231.8-49.2 49.1h-49.6l-134.8 134.8 6 6.1 132.3-132.2z"/>
										</g>
										<g id="&lt;Group&gt;">
											<path id="&lt;Path&gt;" class="s0" d="m13 661.8l200.1-200.1v-183.7l106.3-106.4-6.2-6.1-108.8 108.8 0.1 183.8-195 195h-85.9l-182.7 182.8 6.1 6.1 180.2-180.2z"/>
										</g>
										<g id="&lt;Group&gt;">
											<path id="&lt;Path&gt;" class="s0" d="m454.4 263.2l67.6-67.7-3.1-3.1-66.3 66.4h-90.4l-130.1 130 3.1 3.1 128.7-128.8z"/>
										</g>
										<g id="&lt;Group&gt;">
											<path id="&lt;Path&gt;" class="s0" d="m-19.8 987.1l232.7-232.8v-131.9l118.9-118.9v-93.3l47.2-47.2-3.2-3-48.4 48.3v93.4l-118.8 118.8v131.9l-230.2 230.3-83.3 0.1-14.8 14.8 3 3 13.5-13.5z"/>
										</g>
										<g id="&lt;Group&gt;">
											<path id="&lt;Path&gt;" class="s0" d="m99.9 1029.8l196.3-196.3v-40.6l106.6-106.7v-278.1l187.7-187.6h55.9v-4.4h-57.8l-190.1 190.1v278.3l-106.6 106.6v40.7l-193.7 193.6h-30.5l-76.8 76.8 3.1 3.1 75.5-75.5z"/>
										</g>
										<g id="&lt;Group&gt;">
											<path id="&lt;Path&gt;" class="s0" d="m322.4 549.4l161-161-3-3-159.8 159.8-117.8-0.1-211.2 211.2h-134.1l-103.2 103.3 3.1 3 101.9-102 134.1 0.1 211.2-211.2z"/>
										</g>
										<g id="&lt;Group&gt;">
											<path id="&lt;Path&gt;" class="s0" d="m-111.2 354.3c3.4 3.4 8.9 3.5 12.3 0.1 3.3-3.4 3.3-8.8 0-12.2-3.4-3.4-8.9-3.4-12.3 0-3.3 3.4-3.3 8.8 0 12.1z"/>
										</g>
										<g id="&lt;Group&gt;">
											<path id="&lt;Path&gt;" class="s0" d="m141.2 133.4c3.3 3.5 8.8 3.5 12.2 0 3.3-3.3 3.4-8.8 0-12.1-3.3-3.3-8.8-3.4-12.2 0-3.4 3.3-3.4 8.8 0 12.1z"/>
										</g>
										<g id="&lt;Group&gt;">
											<path id="&lt;Path&gt;" class="s0" d="m203.2 199.6c3.3 3.3 8.8 3.3 12.1-0.2 3.4-3.3 3.4-8.7 0.1-12.1-3.4-3.4-8.9-3.4-12.2-0.1-3.4 3.5-3.4 9 0 12.4z"/>
										</g>
										<g id="&lt;Group&gt;">
											<path id="&lt;Path&gt;" class="s0" d="m513.4 201.1c3.3 3.3 8.8 3.3 12.1 0 3.4-3.4 3.4-8.9 0.2-12.3-3.5-3.3-9-3.3-12.3 0.1-3.5 3.4-3.4 8.8 0 12.2z"/>
										</g>
										<g id="&lt;Group&gt;">
											<path id="&lt;Path&gt;" class="s0" d="m227.5 396.4c3.3 3.4 8.8 3.4 12.2 0.1 3.5-3.4 3.4-8.9 0-12.2-3.4-3.4-8.9-3.5-12.2-0.1-3.4 3.4-3.4 8.9 0 12.2z"/>
										</g>
										<g id="&lt;Group&gt;">
											<path id="&lt;Path&gt;" class="s0" d="m369.7 368.1c3.4 3.3 8.8 3.3 12.2 0 3.3-3.4 3.3-8.8 0-12.2-3.3-3.4-8.8-3.4-12.2 0-3.4 3.4-3.3 8.8 0 12.2z"/>
										</g>
										<g id="&lt;Group&gt;">
											<path id="&lt;Path&gt;" class="s0" d="m395.1 415.8c3.3 3.4 8.9 3.3 12.2 0 3.3-3.3 3.3-8.8 0-12.1-3.4-3.4-8.9-3.4-12.3 0-3.3 3.3-3.3 8.8 0.1 12.1z"/>
										</g>
										<g id="&lt;Group&gt;">
											<path id="&lt;Path&gt;" class="s0" d="m77.5 626.7c3.4 3.5 8.8 3.4 12.2 0 3.3-3.3 3.4-8.7 0-12.1-3.4-3.4-8.9-3.4-12.2-0.1-3.3 3.4-3.3 8.9 0 12.2z"/>
										</g>
										<g id="&lt;Group&gt;">
											<path id="&lt;Path&gt;" class="s0" d="m-96.2 605.4c3.4 3.3 8.9 3.3 12.2 0 3.4-3.4 3.4-8.9 0-12.2-3.3-3.4-8.8-3.3-12.2 0.1-3.3 3.3-3.3 8.7 0 12.1z"/>
										</g>
										<g id="&lt;Group&gt;">
											<path id="&lt;Path&gt;" class="s0" d="m76.7 286.2c3.4 3.5 8.8 3.5 12.2 0 3.4-3.3 3.3-8.7-0.1-12.1-3.3-3.3-8.7-3.3-12.1 0-3.4 3.4-3.3 8.8 0 12.1z"/>
										</g>
										<g id="&lt;Group&gt;">
											<path id="&lt;Path&gt;" class="s0" d="m101.6 484.8c3.4 3.3 8.9 3.4 12.2 0.1 3.4-3.4 3.4-8.9 0-12.2-3.4-3.4-8.8-3.4-12.2 0-3.4 3.3-3.2 8.7 0 12.1z"/>
										</g>
										<g id="&lt;Group&gt;">
											<path id="&lt;Path&gt;" class="s0" d="m203.7 628c3.4 3.3 8.8 3.4 12.2 0 3.3-3.3 3.3-8.7-0.1-12.2-3.3-3.3-8.8-3.3-12.1 0-3.4 3.4-3.4 8.9 0 12.2z"/>
										</g>
										<g id="&lt;Group&gt;">
											<path id="&lt;Path&gt;" class="s0" d="m203.1 757.9c3.4 3.5 8.9 3.4 12.2 0.1 3.4-3.4 3.5-8.8 0-12.3-3.3-3.3-8.8-3.3-12.1 0.1-3.4 3.3-3.4 8.8-0.1 12.1z"/>
										</g>
										<g id="&lt;Group&gt;">
											<path id="&lt;Path&gt;" class="s0" d="m642.3 223.4c3.4 3.4 8.9 3.3 12.2 0 3.3-3.4 3.4-8.8 0-12.2-3.3-3.4-8.8-3.4-12.2 0-3.3 3.3-3.3 8.8 0 12.2z"/>
										</g>
										<g id="&lt;Group&gt;">
											<path id="&lt;Path&gt;" class="s0" d="m474.3 393.5c3.3 3.3 8.8 3.3 12.1 0 3.4-3.4 3.5-8.8 0-12.3-3.3-3.3-8.8-3.3-12.1 0.1-3.4 3.3-3.4 8.8 0 12.2z"/>
										</g>
										<g id="&lt;Group&gt;">
											<path id="&lt;Path&gt;" class="s0" d="m27 784.9c3.4 3.4 8.8 3.3 12.1-0.1 3.4-3.4 3.5-8.6 0-12.1-3.3-3.3-8.7-3.4-12.1 0-3.3 3.4-3.3 8.9 0 12.2z"/>
										</g>
										<g id="&lt;Group&gt;">
											<path id="&lt;Path&gt;" class="s0" d="m-277.4 739.9c3.4 3.4 8.8 3.3 12.2-0.1 3.3-3.3 3.4-8.7 0-12-3.3-3.4-8.8-3.4-12.1-0.1-3.5 3.4-3.5 8.9-0.1 12.2z"/>
										</g>
										<g id="&lt;Group&gt;">
											<path id="&lt;Path&gt;" class="s0" d="m197.6 553.4c3.4 3.4 8.9 3.4 12.2 0.1 3.4-3.4 3.4-8.9 0-12.2-3.3-3.4-8.8-3.3-12.2 0-3.3 3.4-3.3 8.8 0 12.1z"/>
										</g>
										<g id="&lt;Group&gt;">
											<path id="&lt;Path&gt;" class="s0" d="m-42.1 335.5c3.3 3.4 8.9 3.4 12.2 0.1 3.4-3.4 3.4-8.9 0-12.3-3.3-3.4-8.9-3.3-12.2 0.1-3.4 3.3-3.4 8.8 0 12.1z"/>
										</g>
										<g id="&lt;Group&gt;">
											<path id="&lt;Path&gt;" class="s0" d="m-242.4 403.4c3.4 3.3 8.8 3.3 12.2 0 3.4-3.4 3.4-8.9 0-12.2-3.3-3.4-8.8-3.4-12.2 0-3.4 3.3-3.4 8.8 0 12.2z"/>
										</g>
										<g id="&lt;Group&gt;">
											<path id="&lt;Path&gt;" class="s0" d="m-367.3 492.5c3.3 3.3 8.8 3.3 12.2-0.1 3.3-3.3 3.3-8.7 0-12.1-3.4-3.4-8.9-3.4-12.2-0.1-3.4 3.4-3.4 8.9 0 12.3z"/>
										</g>
										<g id="&lt;Group&gt;">
											<path id="&lt;Path&gt;" class="s0" d="m-444.2 569.5c3.3 3.3 8.7 3.3 12.1-0.1 3.4-3.3 3.4-8.7 0-12.1-3.4-3.3-8.8-3.4-12.2 0-3.4 3.3-3.4 8.8 0.1 12.2z"/>
										</g>
										<g id="&lt;Group&gt;">
											<path id="&lt;Path&gt;" class="s0" d="m-413.9 596.9c3.4 3.4 8.9 3.4 12.2 0 3.5-3.4 3.4-8.9 0-12.2-3.3-3.4-8.7-3.3-12.1 0-3.4 3.4-3.5 8.8-0.1 12.2z"/>
										</g>
										<g id="&lt;Group&gt;">
											<path id="&lt;Path&gt;" class="s0" d="m-283.2 536.4c3.4 3.3 8.8 3.3 12.1-0.1 3.4-3.4 3.4-8.7 0-12.1-3.3-3.4-8.7-3.5-12.1-0.1-3.5 3.4-3.4 8.9 0 12.3z"/>
										</g>
										<g id="&lt;Group&gt;">
											<path id="&lt;Path&gt;" class="s0" d="m-113.2 476.2c3.4 3.3 8.9 3.3 12.2 0 3.4-3.4 3.4-8.8 0-12.2-3.3-3.3-8.8-3.3-12.2 0-3.3 3.4-3.3 8.8 0 12.2z"/>
										</g>
										<g id="&lt;Group&gt;">
											<path id="&lt;Path&gt;" class="s0" d="m335.2 68.6c3.3 3.3 8.7 3.3 12.1 0 3.4-3.4 3.4-8.9 0.1-12.3-3.4-3.4-8.9-3.3-12.2 0-3.4 3.4-3.5 8.9 0 12.3z"/>
										</g>
										<g id="&lt;Group&gt;">
											<path id="&lt;Path&gt;" class="s0" d="m307.2 177.7c4.9 4.8 12.6 4.7 17.3 0 4.8-4.8 4.8-12.5 0-17.3-4.8-4.7-12.5-4.8-17.3-0.1-4.8 4.9-4.7 12.6 0 17.4z"/>
										</g>
										<g id="&lt;Group&gt;">
											<path id="&lt;Path&gt;" class="s0" d="m31.2 379.1c4.7 4.7 12.4 4.7 17.2 0 4.8-4.8 4.8-12.5 0-17.3-4.7-4.7-12.5-4.7-17.2 0-4.8 4.8-4.8 12.5 0 17.3z"/>
										</g>
										<g id="&lt;Group&gt;">
											<path id="&lt;Path&gt;" class="s0" d="m-139 550.1c4.8 4.7 12.4 4.7 17.2-0.1 4.7-4.7 4.8-12.4 0-17.2-4.8-4.7-12.5-4.8-17.2 0-4.8 4.8-4.8 12.5 0 17.3z"/>
										</g>
										<g id="&lt;Group&gt;">
											<path id="&lt;Path&gt;" class="s0" d="m475.8 164.5c4.7 4.7 12.5 4.7 17.2-0.1 4.7-4.7 4.8-12.4 0-17.2-4.7-4.7-12.5-4.7-17.2 0-4.7 4.8-4.8 12.5 0 17.3z"/>
										</g>
									</g>
									<g id="&lt;Group&gt;" style="opacity: .2">
										<g id="&lt;Group&gt;">
											<path id="&lt;Path&gt;" class="s0" d="m-76 419.9l36.5-36.4-2.3-2.3-35.6 35.6-60.8-0.8-66.9 66.8h-25.4l-58 58.1-0.1 68.3h3.2v-67l56.1-56.1h25.6l66.8-66.9z"/>
										</g>
										<g id="&lt;Group&gt;">
											<path id="&lt;Path&gt;" class="s0" d="m-228.2 664.9l61-61.1 0.1-86 43.7-43.7h81.9l141.4-141.4v-66.1l46.8-46.8-2.3-2.3-47.7 47.7v66.1l-139.6 139.6-81.8-0.1-45.6 45.7v86l-60.2 60.1z"/>
										</g>
										<g id="&lt;Group&gt;">
											<path id="&lt;Path&gt;" class="s0" d="m126.3 370.1l96-96v-33.8l69.3-69.4-2.2-2.2-70.3 70.3v33.8l-94 94h-115.4l-88 88.1h-80.2l-106.5 106.5v35.8l-17.8 17.7 2.3 2.3 18.7-18.7v-35.8l104.6-104.6h80.2l88.1-88z"/>
										</g>
										<g id="&lt;Group&gt;">
											<path id="&lt;Path&gt;" class="s0" d="m60.8 706l39-39.2 0.1-80.3 51-51.1v-226.7l41.6-41.6-2.3-2.2-42.5 42.5 0.1 226.7-51.2 51.1v80.4l-38.2 38.2z"/>
										</g>
										<g id="&lt;Group&gt;">
											<path id="&lt;Path&gt;" class="s0" d="m-113.2 628.5l57-57.1v-45.8l125.2-125.2-4.5-4.6-127.1 127.1v45.9l-53.4 53.4-58.2-0.1-50.7 50.7 4.5 4.5 48.8-48.8z"/>
										</g>
										<g id="&lt;Group&gt;">
											<path id="&lt;Path&gt;" class="s0" d="m28.3 570.9l90.6-90.6-2.2-2.2-89.7 89.7-56.3-0.1-98 98.1-36.5-0.1-37.8 37.9 2.3 2.2 36.9-36.9h36.4l98-98z"/>
										</g>
										<g id="&lt;Group&gt;">
											<path id="&lt;Path&gt;" class="s0" d="m5.7 676.8l40-40v-171.5l55.4-55.4h82.2l134.9-134.7 45.7-0.1 32.4-32.5-4.4-4.4-30.6 30.6h-45.8l-134.8 134.8-82.2-0.1-59.2 59.2v171.4l-36.3 36.3h-36.7l-99.8 99.8 4.6 4.5 97.8-97.9z"/>
										</g>
										<g id="&lt;Group&gt;">
											<path id="&lt;Path&gt;" class="s0" d="m46.6 614.2l148-147.9v-136l78.6-78.6-4.5-4.5-80.5 80.5v136l-144.1 144.1h-63.5l-135.3 135.2 4.5 4.6 133.4-133.4z"/>
										</g>
										<g id="&lt;Group&gt;">
											<path id="&lt;Path&gt;" class="s0" d="m373.1 319.4l50-50-2.3-2.3-49 49.1h-66.9l-96.2 96.1 2.2 2.3 95.3-95.3z"/>
										</g>
										<g id="&lt;Group&gt;">
											<path id="&lt;Path&gt;" class="s0" d="m22.4 854.8l172.1-172.1v-97.7l87.9-87.9-0.1-69 34.9-34.9-2.2-2.3-35.8 35.9v69l-87.9 87.9v97.6l-170.3 170.3-61.6 0.1-10.9 11 2.3 2.1 10-10z"/>
										</g>
										<g id="&lt;Group&gt;">
											<path id="&lt;Path&gt;" class="s0" d="m110.9 886.4l145.2-145.1v-30l78.9-78.9-0.1-205.8 138.7-138.7h41.4v-3.2h-42.6l-140.6 140.6v205.7l-78.9 78.9v30l-143.2 143.3h-22.5l-56.9 56.8 2.2 2.2 55.9-55.8z"/>
										</g>
										<g id="&lt;Group&gt;">
											<path id="&lt;Path&gt;" class="s0" d="m275.5 531.1l119.1-119.1-2.3-2.2-118.2 118.2-87.1-0.1-156.2 156.3h-99.1l-76.4 76.3 2.2 2.2 75.5-75.4 99.1 0.1 156.2-156.3z"/>
										</g>
										<g id="&lt;Group&gt;">
											<path id="&lt;Path&gt;" class="s0" d="m-45.2 386.8c2.5 2.5 6.5 2.6 9 0 2.5-2.4 2.5-6.5 0-9-2.5-2.5-6.5-2.4-9 0.1-2.5 2.5-2.4 6.4 0 8.9z"/>
										</g>
										<g id="&lt;Group&gt;">
											<path id="&lt;Path&gt;" class="s0" d="m141.4 223.5c2.5 2.5 6.6 2.5 9 0 2.6-2.5 2.5-6.6 0-9-2.4-2.5-6.4-2.5-9 0-2.4 2.4-2.4 6.6 0 9z"/>
										</g>
										<g id="&lt;Group&gt;">
											<path id="&lt;Path&gt;" class="s0" d="m187.3 272.3c2.5 2.5 6.5 2.5 8.9 0 2.5-2.4 2.6-6.5 0.1-9-2.5-2.5-6.6-2.5-9 0-2.6 2.5-2.5 6.6 0 9z"/>
										</g>
										<g id="&lt;Group&gt;">
											<path id="&lt;Path&gt;" class="s0" d="m416.7 273.5c2.5 2.5 6.5 2.5 9.1 0 2.4-2.5 2.4-6.6-0.1-9.1-2.5-2.5-6.5-2.4-9 0.1-2.5 2.5-2.5 6.5 0 9z"/>
										</g>
										<g id="&lt;Group&gt;">
											<path id="&lt;Path&gt;" class="s0" d="m205.3 418c2.5 2.4 6.5 2.5 9 0 2.5-2.5 2.5-6.5 0-9-2.5-2.5-6.5-2.6-9-0.1-2.5 2.6-2.5 6.6 0 9.1z"/>
										</g>
										<g id="&lt;Group&gt;">
											<path id="&lt;Path&gt;" class="s0" d="m310.5 397c2.5 2.6 6.4 2.5 8.9 0 2.6-2.5 2.6-6.5 0-9-2.5-2.5-6.5-2.5-8.9 0-2.5 2.5-2.5 6.5 0 9z"/>
										</g>
										<g id="&lt;Group&gt;">
											<path id="&lt;Path&gt;" class="s0" d="m329.2 432.3c2.5 2.5 6.6 2.5 9 0 2.5-2.4 2.5-6.5 0-9-2.4-2.5-6.6-2.5-9.1 0-2.4 2.4-2.4 6.6 0.1 9z"/>
										</g>
										<g id="&lt;Group&gt;">
											<path id="&lt;Path&gt;" class="s0" d="m94.3 588.3c2.5 2.5 6.5 2.5 9.1 0 2.4-2.5 2.4-6.5-0.1-9-2.5-2.5-6.5-2.5-8.9 0-2.6 2.5-2.6 6.5-0.1 9z"/>
										</g>
										<g id="&lt;Group&gt;">
											<path id="&lt;Path&gt;" class="s0" d="m-34.1 572.5c2.5 2.6 6.6 2.5 9 0 2.5-2.5 2.5-6.5 0-9-2.5-2.5-6.5-2.5-8.9 0-2.6 2.5-2.6 6.6-0.1 9z"/>
										</g>
										<g id="&lt;Group&gt;">
											<path id="&lt;Path&gt;" class="s0" d="m93.8 336.4c2.5 2.6 6.5 2.6 9 0.1 2.5-2.5 2.5-6.5 0-9-2.5-2.5-6.6-2.5-9 0-2.5 2.5-2.5 6.5 0 8.9z"/>
										</g>
										<g id="&lt;Group&gt;">
											<path id="&lt;Path&gt;" class="s0" d="m112.2 483.3c2.5 2.5 6.5 2.6 9 0 2.5-2.4 2.5-6.4-0.1-8.9-2.5-2.5-6.5-2.6-8.9-0.1-2.5 2.5-2.5 6.5 0 9z"/>
										</g>
										<g id="&lt;Group&gt;">
											<path id="&lt;Path&gt;" class="s0" d="m187.7 589.2c2.5 2.5 6.5 2.6 9 0.1 2.5-2.5 2.4-6.6 0-9-2.5-2.5-6.6-2.5-9-0.1-2.5 2.5-2.5 6.5 0 9z"/>
										</g>
										<g id="&lt;Group&gt;">
											<path id="&lt;Path&gt;" class="s0" d="m187.2 685.4c2.6 2.5 6.6 2.5 9 0 2.5-2.5 2.6-6.6 0.1-9.1-2.5-2.5-6.5-2.4-9 0.1-2.5 2.5-2.5 6.5-0.1 9z"/>
										</g>
										<g id="&lt;Group&gt;">
											<path id="&lt;Path&gt;" class="s0" d="m512.1 290c2.5 2.5 6.5 2.4 9 0 2.5-2.5 2.5-6.5 0-9-2.4-2.6-6.5-2.5-9 0-2.5 2.5-2.6 6.5 0 9z"/>
										</g>
										<g id="&lt;Group&gt;">
											<path id="&lt;Path&gt;" class="s0" d="m387.8 415.8c2.5 2.4 6.5 2.4 9 0 2.5-2.6 2.5-6.6 0-9-2.5-2.5-6.5-2.5-9-0.1-2.5 2.6-2.5 6.6 0 9.1z"/>
										</g>
										<g id="&lt;Group&gt;">
											<path id="&lt;Path&gt;" class="s0" d="m57 705.3c2.5 2.5 6.5 2.5 9 0 2.5-2.5 2.5-6.5 0-9-2.5-2.5-6.5-2.5-9-0.1-2.5 2.5-2.5 6.6 0 9.1z"/>
										</g>
										<g id="&lt;Group&gt;">
											<path id="&lt;Path&gt;" class="s0" d="m-168.1 672c2.4 2.6 6.5 2.5 9 0 2.5-2.5 2.5-6.5 0-9-2.5-2.5-6.5-2.5-9 0-2.5 2.5-2.5 6.6 0 9z"/>
										</g>
										<g id="&lt;Group&gt;">
											<path id="&lt;Path&gt;" class="s0" d="m183.2 534.2c2.5 2.4 6.5 2.5 9 0 2.5-2.5 2.5-6.6 0-9.1-2.5-2.5-6.5-2.5-9 0-2.5 2.5-2.5 6.5 0 9.1z"/>
										</g>
										<g id="&lt;Group&gt;">
											<path id="&lt;Path&gt;" class="s0" d="m5.9 372.9c2.4 2.5 6.5 2.5 9 0 2.5-2.5 2.5-6.5 0-9-2.5-2.5-6.5-2.5-9 0-2.5 2.5-2.5 6.5 0 9z"/>
										</g>
										<g id="&lt;Group&gt;">
											<path id="&lt;Path&gt;" class="s0" d="m-142.2 423.1c2.4 2.5 6.5 2.5 9 0 2.5-2.5 2.5-6.5 0-9-2.5-2.5-6.6-2.5-9 0-2.5 2.5-2.5 6.5 0 9z"/>
										</g>
										<g id="&lt;Group&gt;">
											<path id="&lt;Path&gt;" class="s0" d="m-234.6 489c2.5 2.5 6.5 2.5 9 0 2.5-2.5 2.5-6.6 0-9-2.5-2.5-6.5-2.5-9-0.1-2.5 2.5-2.5 6.6 0 9.1z"/>
										</g>
										<g id="&lt;Group&gt;">
											<path id="&lt;Path&gt;" class="s0" d="m-291.6 546c2.5 2.5 6.6 2.4 9 0 2.5-2.6 2.5-6.6 0-9.1-2.4-2.5-6.5-2.5-9 0.1-2.5 2.4-2.5 6.5 0 9z"/>
										</g>
										<g id="&lt;Group&gt;">
											<path id="&lt;Path&gt;" class="s0" d="m-269 566.2c2.4 2.5 6.5 2.5 9 0 2.4-2.4 2.5-6.5 0-9-2.5-2.5-6.6-2.5-9 0-2.6 2.5-2.6 6.5 0 9z"/>
										</g>
										<g id="&lt;Group&gt;">
											<path id="&lt;Path&gt;" class="s0" d="m-172.4 521.4c2.4 2.6 6.5 2.5 8.9 0 2.6-2.5 2.6-6.5 0-8.9-2.4-2.5-6.5-2.6-8.9-0.1-2.5 2.5-2.5 6.6 0 9z"/>
										</g>
										<g id="&lt;Group&gt;">
											<path id="&lt;Path&gt;" class="s0" d="m-46.6 476.9c2.4 2.6 6.4 2.6 8.9 0.1 2.5-2.6 2.5-6.6 0-9.1-2.4-2.4-6.5-2.4-9 0.1-2.5 2.4-2.4 6.5 0.1 8.9z"/>
										</g>
										<g id="&lt;Group&gt;">
											<path id="&lt;Path&gt;" class="s0" d="m284.9 175.4c2.5 2.5 6.6 2.6 9 0 2.5-2.4 2.4-6.4-0.1-9-2.4-2.4-6.4-2.4-8.9 0-2.5 2.6-2.5 6.6 0 9z"/>
										</g>
										<g id="&lt;Group&gt;">
											<path id="&lt;Path&gt;" class="s0" d="m264.2 256.2c3.6 3.6 9.3 3.5 12.9 0 3.4-3.5 3.4-9.2-0.1-12.8-3.5-3.5-9.2-3.5-12.8 0-3.5 3.5-3.5 9.3 0 12.8z"/>
										</g>
										<g id="&lt;Group&gt;">
											<path id="&lt;Path&gt;" class="s0" d="m60.1 405.2c3.5 3.5 9.2 3.5 12.7 0 3.5-3.6 3.6-9.4 0-12.9-3.4-3.5-9.2-3.4-12.7 0.1-3.5 3.6-3.6 9.2 0 12.8z"/>
										</g>
										<g id="&lt;Group&gt;">
											<path id="&lt;Path&gt;" class="s0" d="m-65.8 531.6c3.5 3.5 9.2 3.5 12.7 0 3.6-3.5 3.6-9.2 0-12.8-3.5-3.5-9.2-3.5-12.7 0-3.5 3.5-3.5 9.3 0 12.8z"/>
										</g>
										<g id="&lt;Group&gt;">
											<path id="&lt;Path&gt;" class="s0" d="m388.9 246.4c3.5 3.5 9.2 3.5 12.8 0 3.5-3.5 3.5-9.2 0-12.7-3.6-3.6-9.2-3.6-12.8 0-3.5 3.5-3.5 9.2 0 12.7z"/>
										</g>
									</g>
									<g id="&lt;Group&gt;">
										<g id="&lt;Group&gt;">
											<path id="&lt;Path&gt;" class="s0" d="m-48.4 427.5l31.9-31.9-2-1.9-31 31-53.2-0.6-58.3 58.3h-22.3l-50.6 50.7v59.6h2.7v-58.5l49.1-49h22.3l58.4-58.4z"/>
										</g>
										<g id="&lt;Group&gt;">
											<path id="&lt;Path&gt;" class="s0" d="m-181.2 641.3l53.3-53.3v-75.1l38.3-38.2h71.4l123.4-123.4v-57.7l40.9-40.9-2-2-41.7 41.7v57.7l-121.8 121.8h-71.4l-39.9 39.9v75.1l-52.5 52.5z"/>
										</g>
										<g id="&lt;Group&gt;">
											<path id="&lt;Path&gt;" class="s0" d="m128.4 383.9l83.7-83.8v-29.5l60.6-60.6-1.9-1.9-61.5 61.4v29.4l-82.1 82.2h-100.7l-76.8 76.9h-70l-93 93v31.2l-15.5 15.5 2 2 16.2-16.3v-31.2l91.4-91.4h70l76.9-76.9z"/>
										</g>
										<g id="&lt;Group&gt;">
											<path id="&lt;Path&gt;" class="s0" d="m71.1 677.3l34.1-34.2v-70.2l44.6-44.6 0.1-198 36.2-36.2-1.9-2.1-37.2 37.1v198.1l-44.6 44.6v70.1l-33.3 33.4z"/>
										</g>
										<g id="&lt;Group&gt;">
											<path id="&lt;Path&gt;" class="s0" d="m-80.9 609.5l49.8-49.8v-39.9l109.4-109.4-3.9-4-111 111-0.1 40-46.5 46.6h-50.9l-44.2 44.2 4 3.9 42.6-42.6z"/>
										</g>
										<g id="&lt;Group&gt;">
											<path id="&lt;Path&gt;" class="s0" d="m42.8 559.3l79-79.1-1.9-1.9-78.2 78.2h-49.3l-85.5 85.5h-31.8l-33.1 33.1 2 2 32.2-32.2h31.8l85.6-85.6z"/>
										</g>
										<g id="&lt;Group&gt;">
											<path id="&lt;Path&gt;" class="s0" d="m23 651.7l34.9-35v-149.6l48.4-48.4h71.8l117.7-117.7 40 0.1 28.4-28.4-4-4-26.7 26.7h-40.1l-117.6 117.8h-71.8l-51.6 51.6v149.6l-31.7 31.8h-32.1l-87.1 87.1 3.9 3.9 85.5-85.4z"/>
										</g>
										<g id="&lt;Group&gt;">
											<path id="&lt;Path&gt;" class="s0" d="m58.8 597.2l129.1-129.3v-118.6l68.7-68.7-3.9-4-70.3 70.3v118.7l-125.9 125.9h-55.4l-118.1 118 4 3.9 116.4-116.3z"/>
										</g>
										<g id="&lt;Group&gt;">
											<path id="&lt;Path&gt;" class="s0" d="m343.7 339.7l43.8-43.8-2-1.9-42.9 42.9-58.4-0.1-83.9 84 1.9 2 83.2-83.1z"/>
										</g>
										<g id="&lt;Group&gt;">
											<path id="&lt;Path&gt;" class="s0" d="m37.6 807.1l150.2-150.3v-85.2l76.8-76.7v-60.3l30.4-30.5-2-1.9-31.2 31.2v60.4l-76.7 76.7v85.2l-148.7 148.7h-53.8l-9.5 9.5 2 2.1 8.6-8.8z"/>
										</g>
										<g id="&lt;Group&gt;">
											<path id="&lt;Path&gt;" class="s0" d="m114.9 834.8l126.7-126.8v-26.2l68.9-68.9v-179.6l121.1-121.2h36.2v-2.8h-37.3l-122.7 122.8v179.7l-68.9 68.8v26.2l-125.1 125.1h-19.7l-49.6 49.6 2 2 48.7-48.8z"/>
										</g>
										<g id="&lt;Group&gt;">
											<path id="&lt;Path&gt;" class="s0" d="m258.6 524.6l103.9-104-2-2-103.2 103.2h-75.9l-136.5 136.3-86.6 0.1-66.6 66.6 1.9 1.9 65.9-65.8h86.6l136.4-136.3z"/>
										</g>
										<g id="&lt;Group&gt;">
											<path id="&lt;Path&gt;" class="s0" d="m-21.4 398.6c2.1 2.1 5.7 2.2 7.9 0 2.1-2.2 2.1-5.7 0-7.9-2.3-2.2-5.8-2.1-7.9 0-2.2 2.2-2.2 5.7 0 7.9z"/>
										</g>
										<g id="&lt;Group&gt;">
											<path id="&lt;Path&gt;" class="s0" d="m141.5 255.9c2.2 2.2 5.7 2.2 7.9 0.1 2.2-2.2 2.2-5.8 0-7.9-2.2-2.2-5.7-2.2-7.9 0-2.2 2.1-2.2 5.7 0 7.8z"/>
										</g>
										<g id="&lt;Group&gt;">
											<path id="&lt;Path&gt;" class="s0" d="m181.5 298.6c2.2 2.2 5.7 2.1 7.9 0 2.2-2.2 2.2-5.7 0-7.8-2.2-2.2-5.7-2.3-7.9 0-2.2 2.1-2.2 5.6 0 7.8z"/>
										</g>
										<g id="&lt;Group&gt;">
											<path id="&lt;Path&gt;" class="s0" d="m381.9 299.6c2.1 2.1 5.6 2.2 7.9 0 2.1-2.2 2.1-5.7 0-7.9-2.2-2.2-5.8-2.1-8 0-2.1 2.2-2.1 5.7 0.1 7.9z"/>
										</g>
										<g id="&lt;Group&gt;">
											<path id="&lt;Path&gt;" class="s0" d="m197.3 425.8c2.2 2.2 5.7 2.2 7.9 0 2.1-2.2 2.2-5.7 0-7.9-2.2-2.2-5.7-2.2-7.9 0-2.2 2.2-2.2 5.7 0 7.9z"/>
										</g>
										<g id="&lt;Group&gt;">
											<path id="&lt;Path&gt;" class="s0" d="m289.1 407.4c2.2 2.2 5.7 2.2 7.9 0 2.1-2.1 2.1-5.6 0-7.8-2.2-2.1-5.7-2.3-7.9 0-2.2 2.1-2.2 5.6 0 7.8z"/>
										</g>
										<g id="&lt;Group&gt;">
											<path id="&lt;Path&gt;" class="s0" d="m305.5 438.2c2.1 2.2 5.7 2.2 7.8 0 2.2-2.1 2.2-5.6 0-7.8-2.1-2.2-5.7-2.2-7.9 0-2.1 2.1-2.1 5.7 0.1 7.8z"/>
										</g>
										<g id="&lt;Group&gt;">
											<path id="&lt;Path&gt;" class="s0" d="m100.4 574.5c2.2 2.1 5.7 2.1 7.9-0.1 2.2-2.2 2.1-5.6 0-7.8-2.2-2.1-5.7-2.2-7.9 0-2.2 2.1-2.2 5.7 0 7.9z"/>
										</g>
										<g id="&lt;Group&gt;">
											<path id="&lt;Path&gt;" class="s0" d="m-11.8 560.7c2.2 2.2 5.8 2.2 7.9 0 2.2-2.1 2.2-5.7 0-7.9-2.2-2.1-5.6-2.1-7.8 0-2.2 2.2-2.2 5.8-0.1 7.9z"/>
										</g>
										<g id="&lt;Group&gt;">
											<path id="&lt;Path&gt;" class="s0" d="m99.9 354.6c2.2 2.1 5.7 2.1 7.9 0 2.2-2.2 2.1-5.7 0-7.8-2.2-2.2-5.7-2.2-7.9-0.1-2.1 2.2-2.1 5.8 0 7.9z"/>
										</g>
										<g id="&lt;Group&gt;">
											<path id="&lt;Path&gt;" class="s0" d="m116 482.8c2.2 2.2 5.7 2.2 7.9 0 2.1-2.2 2.1-5.6-0.1-7.8-2.2-2.2-5.6-2.3-7.8-0.1-2.2 2.2-2.2 5.7 0 7.9z"/>
										</g>
										<g id="&lt;Group&gt;">
											<path id="&lt;Path&gt;" class="s0" d="m181.9 575.3c2.1 2.1 5.7 2.1 7.9 0 2.1-2.1 2.1-5.7-0.1-7.9-2.1-2.1-5.7-2.1-7.8-0.1-2.2 2.3-2.1 5.9 0 8z"/>
										</g>
										<g id="&lt;Group&gt;">
											<path id="&lt;Path&gt;" class="s0" d="m181.5 659.3c2.2 2.1 5.8 2.1 7.9 0 2.2-2.2 2.2-5.8 0-8-2.2-2.1-5.7-2.1-7.9 0-2.2 2.2-2.2 5.8 0 8z"/>
										</g>
										<g id="&lt;Group&gt;">
											<path id="&lt;Path&gt;" class="s0" d="m465.1 314c2.2 2.2 5.7 2.2 7.9 0 2.3-2.2 2.2-5.7 0-7.9-2.2-2.2-5.7-2.2-7.9 0-2.1 2.1-2.1 5.8 0 7.9z"/>
										</g>
										<g id="&lt;Group&gt;">
											<path id="&lt;Path&gt;" class="s0" d="m356.6 423.9c2.2 2.1 5.7 2.1 7.9 0 2.2-2.2 2.1-5.8 0-7.9-2.2-2.2-5.7-2.2-7.9-0.1-2.1 2.2-2.1 5.8 0 8z"/>
										</g>
										<g id="&lt;Group&gt;">
											<path id="&lt;Path&gt;" class="s0" d="m67.8 676.6c2.1 2.2 5.7 2.2 7.8 0 2.2-2.2 2.3-5.7 0-7.9-2.1-2.1-5.6-2.1-7.8 0-2.2 2.2-2.2 5.8 0 7.9z"/>
										</g>
										<g id="&lt;Group&gt;">
											<path id="&lt;Path&gt;" class="s0" d="m-128.8 647.6c2.2 2.2 5.7 2.1 7.9-0.1 2.1-2.1 2.2-5.7 0-7.8-2.1-2.2-5.7-2.2-7.9 0-2.2 2.2-2.1 5.7 0 7.9z"/>
										</g>
										<g id="&lt;Group&gt;">
											<path id="&lt;Path&gt;" class="s0" d="m178.1 527.2c2.1 2.1 5.6 2.2 7.7 0 2.2-2.2 2.2-5.8 0-7.9-2-2.2-5.7-2.2-7.9 0-2.1 2.1-2.1 5.6 0.2 7.9z"/>
										</g>
										<g id="&lt;Group&gt;">
											<path id="&lt;Path&gt;" class="s0" d="m23.2 386.4c2.1 2.2 5.7 2.2 7.8 0 2.2-2.1 2.2-5.7 0-7.8-2.1-2.2-5.7-2.2-7.8 0-2.2 2.1-2.2 5.7 0 7.8z"/>
										</g>
										<g id="&lt;Group&gt;">
											<path id="&lt;Path&gt;" class="s0" d="m-106.2 430.2c2.2 2.2 5.7 2.2 7.9 0 2.1-2.2 2.2-5.7 0-7.9-2.2-2.1-5.7-2.1-7.9 0-2.2 2.2-2.2 5.8 0 7.9z"/>
										</g>
										<g id="&lt;Group&gt;">
											<path id="&lt;Path&gt;" class="s0" d="m-186.8 487.8c2.2 2.1 5.7 2.1 7.8 0 2.2-2.2 2.3-5.7 0-7.9-2.1-2.2-5.7-2.2-7.8-0.1-2.1 2.2-2.1 5.8 0 8z"/>
										</g>
										<g id="&lt;Group&gt;">
											<path id="&lt;Path&gt;" class="s0" d="m-236.6 537.5c2.2 2.2 5.8 2.2 7.9 0 2.2-2.2 2.3-5.7 0-7.9-2.1-2.2-5.7-2.2-7.9 0-2.2 2.2-2.2 5.7 0 7.9z"/>
										</g>
										<g id="&lt;Group&gt;">
											<path id="&lt;Path&gt;" class="s0" d="m-216.9 555.2c2.2 2.2 5.7 2.2 7.9 0 2.2-2.2 2.1-5.7 0-7.9-2.2-2.1-5.7-2.1-7.9 0-2.1 2.2-2.2 5.7 0 7.9z"/>
										</g>
										<g id="&lt;Group&gt;">
											<path id="&lt;Path&gt;" class="s0" d="m-132.6 516.1c2.2 2.2 5.8 2.1 7.9 0 2.2-2.2 2.2-5.7 0-7.9-2.1-2.2-5.7-2.2-7.9 0-2.2 2.2-2.2 5.7 0 7.9z"/>
										</g>
										<g id="&lt;Group&gt;">
											<path id="&lt;Path&gt;" class="s0" d="m-22.7 477.2c2.2 2.3 5.6 2.3 7.8 0.1 2.2-2.2 2.2-5.7 0-7.9-2.1-2.1-5.7-2.1-7.8 0-2.2 2.2-2.2 5.7 0 7.8z"/>
										</g>
										<g id="&lt;Group&gt;">
											<path id="&lt;Path&gt;" class="s0" d="m266.8 214c2.2 2.1 5.7 2.1 7.9 0 2.1-2.2 2.1-5.7-0.1-7.8-2.2-2.2-5.6-2.3-7.8-0.1-2.2 2.2-2.2 5.7 0 7.9z"/>
										</g>
										<g id="&lt;Group&gt;">
											<path id="&lt;Path&gt;" class="s0" d="m248.7 284.5c3.1 3.1 8.1 3 11.2 0 3.1-3.1 3.1-8 0-11.2-3.1-3.1-8.1-3-11.1 0-3.2 3.2-3.1 8.1-0.1 11.2z"/>
										</g>
										<g id="&lt;Group&gt;">
											<path id="&lt;Path&gt;" class="s0" d="m70.5 414.5c3.1 3.2 8.1 3.1 11.1 0.1 3.1-3.1 3.1-8.1 0-11.2-3-3.1-8-3.1-11.1 0-3.1 3.1-3.1 8.1 0 11.1z"/>
										</g>
										<g id="&lt;Group&gt;">
											<path id="&lt;Path&gt;" class="s0" d="m-39.4 525c3.1 3 8 3 11.1 0 3.1-3.2 3.1-8.1 0-11.2-3.1-3-8-3.1-11.1 0-3.1 3.1-3.1 8 0 11.2z"/>
										</g>
										<g id="&lt;Group&gt;">
											<path id="&lt;Path&gt;" class="s0" d="m357.6 276c3.1 3 8.1 3 11.1 0 3.1-3.2 3.1-8.1 0-11.2-3.1-3-8-3-11.1 0-3 3.1-3 8.1 0 11.2z"/>
										</g>
									</g>
								</g>
								<g id="&lt;Group&gt;">
									<path id="&lt;Compound Path&gt;" fill-rule="evenodd" class="s0" d="m-224.8 543.1c-5.2 5.1-13.4 5.1-18.5 0-5.2-5.1-5.2-13.4 0-18.5 5.1-5.1 13.4-5.1 18.5 0 5.1 5.1 5.1 13.4 0 18.5zm-17-16.9c-4.2 4.2-4.2 11.1 0 15.4 4.2 4.2 11.1 4.2 15.4-0.1 4.2-4.2 4.2-11.1 0-15.3-4.3-4.3-11.1-4.3-15.4 0z"/>
								</g>
								<g id="&lt;Group&gt;">
									<path id="&lt;Compound Path&gt;" fill-rule="evenodd" class="s0" d="m-174.5 492.8c-5.1 5.1-13.4 5.1-18.5 0-5.1-5.1-5.1-13.5 0-18.6 5.1-5 13.4-5 18.5 0 5.1 5.1 5.1 13.5 0 18.6zm-16.9-17c-4.3 4.3-4.3 11.2-0.1 15.4 4.3 4.2 11.2 4.2 15.4 0 4.3-4.3 4.3-11.2 0-15.4-4.2-4.2-11.1-4.2-15.3 0z"/>
								</g>
								<g id="&lt;Group&gt;">
									<path id="&lt;Compound Path&gt;" fill-rule="evenodd" class="s0" d="m-94.4 435.6c-5.1 5.1-13.4 5.1-18.5 0-5.1-5.1-5.1-13.5 0-18.6 5.1-5.1 13.4-5.1 18.5 0 5.1 5.1 5.1 13.5 0 18.6zm-16.9-17c-4.3 4.3-4.3 11.2 0 15.4 4.2 4.2 11.1 4.2 15.3-0.1 4.3-4.1 4.3-11 0-15.3-4.2-4.2-11.1-4.2-15.3 0z"/>
								</g>
								<g id="&lt;Group&gt;">
									<path id="&lt;Compound Path&gt;" fill-rule="evenodd" class="s0" d="m-9.3 403.5c-5.1 5.1-13.4 5.1-18.5 0-5.1-5.1-5.1-13.4 0-18.5 5.1-5.1 13.4-5.1 18.5 0 5.1 5.1 5.1 13.4 0 18.5zm-16.9-16.9c-4.2 4.3-4.3 11.1-0.1 15.3 4.3 4.3 11.2 4.3 15.4 0 4.3-4.2 4.3-11.1 0-15.3-4.2-4.2-11.1-4.2-15.3 0z"/>
								</g>
								<g id="&lt;Group&gt;">
									<path id="&lt;Compound Path&gt;" fill-rule="evenodd" class="s0" d="m-119.1 521.7c-5.1 5-13.5 5-18.6-0.1-5.1-5.1-5.1-13.4 0-18.5 5.1-5.1 13.5-5.1 18.6 0 5.1 5.1 5.1 13.4 0 18.6zm-17-17.1c-4.2 4.3-4.2 11.2 0 15.4 4.2 4.3 11.2 4.2 15.4 0 4.2-4.2 4.2-11.1 0-15.3-4.2-4.2-11.1-4.2-15.4-0.1z"/>
								</g>
								<g id="&lt;Group&gt;">
									<path id="&lt;Compound Path&gt;" fill-rule="evenodd" class="s0" d="m153.7 260.7c-5.1 5.1-13.5 5.1-18.6 0-5.1-5.1-5.1-13.4 0-18.5 5.1-5.1 13.5-5.1 18.6 0 5.1 5.1 5.1 13.4 0 18.5zm-16.9-16.9c-4.3 4.2-4.3 11.1-0.1 15.4 4.3 4.2 11.1 4.1 15.3-0.1 4.3-4.2 4.3-11 0-15.3-4.2-4.2-11-4.2-15.2 0z"/>
								</g>
								<g id="&lt;Group&gt;">
									<path id="&lt;Compound Path&gt;" fill-rule="evenodd" class="s0" d="m81 681.3c-5.2 5.2-13.5 5.2-18.6 0.1-5.1-5.2-5.2-13.4 0-18.6 5.1-5 13.5-5.1 18.6 0 5 5.1 5 13.5 0 18.5zm-17-16.8c-4.2 4.2-4.3 11 0 15.3 4.2 4.2 11.1 4.2 15.3 0 4.3-4.3 4.3-11.1 0-15.4-4.2-4.2-11.1-4.2-15.3 0.1z"/>
								</g>
								<g id="&lt;Group&gt;">
									<path id="&lt;Compound Path&gt;" fill-rule="evenodd" class="s0" d="m195.7 664.5c-5.1 5.2-13.5 5.2-18.5 0-5.1-5.1-5.2-13.3 0-18.5 5-5 13.4-5 18.5 0.1 5.1 5.1 5.1 13.3 0 18.4zm-16.9-16.9c-4.3 4.3-4.3 11.1-0.1 15.4 4.3 4.3 11.2 4.2 15.4 0 4.2-4.3 4.1-11.2 0-15.4-4.2-4.2-11.1-4.2-15.3 0z"/>
								</g>
								<g id="&lt;Group&gt;">
									<path id="&lt;Compound Path&gt;" fill-rule="evenodd" class="s0" d="m303.2 412.4c-5.1 5.1-13.4 5.1-18.5-0.1-5.1-5-5.1-13.3 0-18.5 5-5.1 13.4-5.1 18.5 0 5.1 5.2 5.1 13.5 0 18.6zm-17-17c-4.2 4.3-4.2 11.2 0 15.4 4.3 4.3 11.2 4.2 15.4 0 4.3-4.3 4.3-11.1 0-15.4-4.3-4.2-11.1-4.2-15.4 0z"/>
								</g>
								<g id="&lt;Group&gt;">
									<path id="&lt;Compound Path&gt;" fill-rule="evenodd" class="s0" d="m478 318.1c-5.1 5.1-13.4 5.1-18.5 0-5.1-5.1-5.1-13.4 0-18.5 5.1-5.1 13.4-5.1 18.5 0 5.1 5.1 5.1 13.4 0 18.5zm-16.8-17c-4.3 4.3-4.3 11.2-0.1 15.4 4.2 4.2 11.1 4.2 15.3 0 4.3-4.2 4.3-11.1 0-15.3-4.2-4.2-11.1-4.2-15.2-0.1z"/>
								</g>
								<g id="&lt;Group&gt;">
									<path id="&lt;Compound Path&gt;" fill-rule="evenodd" class="s0" d="m370.5 428.4c-5.1 5.1-13.5 5.1-18.6 0-5.1-5.1-5.1-13.3 0-18.5 5.1-5.1 13.5-5.2 18.6-0.1 5.1 5.1 5.1 13.5 0 18.6zm-16.9-16.9c-4.3 4.3-4.3 11.1 0 15.3 4.1 4.2 11 4.3 15.3 0 4.2-4.2 4.2-11.1 0-15.3-4.3-4.2-11.1-4.3-15.3 0z"/>
								</g>
								<g id="&lt;Group&gt;">
									<path id="&lt;Compound Path&gt;" fill-rule="evenodd" class="s0" d="m393.8 304.4c-4.3 4.4-11.4 4.4-15.8 0-4.3-4.4-4.3-11.5 0-15.8 4.4-4.4 11.4-4.4 15.8 0 4.4 4.4 4.4 11.4 0 15.8zm-14.4-14.4c-3.6 3.6-3.6 9.4 0 13 3.6 3.6 9.4 3.6 13 0 3.7-3.7 3.6-9.4 0-13-3.6-3.6-9.4-3.6-13 0z"/>
								</g>
								<g id="&lt;Group&gt;">
									<path id="&lt;Compound Path&gt;" fill-rule="evenodd" class="s0" d="m278.5 217.4c-4.4 4.4-11.5 4.4-15.8 0-4.3-4.4-4.4-11.4 0-15.8 4.3-4.3 11.4-4.3 15.8 0 4.3 4.4 4.3 11.5 0 15.8zm-14.5-14.4c-3.6 3.6-3.6 9.4 0 13 3.7 3.7 9.5 3.7 13.1 0.1 3.6-3.7 3.6-9.5 0-13.2-3.6-3.5-9.5-3.5-13.1 0.1z"/>
								</g>
								<g id="&lt;Group&gt;">
									<path id="&lt;Compound Path&gt;" fill-rule="evenodd" class="s0" d="m193.3 301.6c-4.3 4.3-11.4 4.3-15.8 0-4.3-4.4-4.3-11.4 0-15.8 4.4-4.3 11.5-4.3 15.8 0 4.4 4.4 4.4 11.5 0 15.8zm-14.4-14.4c-3.6 3.6-3.6 9.5 0 13 3.6 3.6 9.5 3.6 13 0 3.7-3.5 3.7-9.4 0-13-3.6-3.6-9.4-3.6-13 0z"/>
								</g>
								<g id="&lt;Group&gt;">
									<path id="&lt;Compound Path&gt;" fill-rule="evenodd" class="s0" d="m-21.8 533.2c-6.8 6.9-18 6.9-24.9 0-6.9-6.9-6.9-18.1 0-25 6.9-6.8 18.1-6.8 24.9 0 6.9 6.9 6.9 18.1 0 25zm-22.8-22.8c-5.6 5.7-5.7 15 0 20.7 5.7 5.7 15 5.6 20.7-0.1 5.7-5.7 5.7-14.9 0-20.6-5.7-5.7-14.9-5.7-20.7 0z"/>
								</g>
								<g id="&lt;Group&gt;">
									<path id="&lt;Compound Path&gt;" fill-rule="evenodd" class="s0" d="m89 422.4c-6.8 6.9-18.1 6.9-24.9 0-6.9-6.8-6.9-18.1 0-24.9 6.8-6.9 18.1-6.9 24.9 0 6.8 6.8 6.8 18.1 0 24.9zm-22.8-22.7c-5.7 5.6-5.7 14.9 0 20.6 5.7 5.7 15 5.7 20.7 0 5.6-5.7 5.6-15 0-20.6-5.7-5.8-15-5.8-20.7 0z"/>
								</g>
								<g id="&lt;Group&gt;">
									<path id="&lt;Compound Path&gt;" fill-rule="evenodd" class="s0" d="m267 291.1c-6.8 6.9-18.1 6.9-24.9 0-6.9-6.9-6.9-18.1 0-24.9 6.8-6.9 18.1-6.9 24.9 0 6.9 6.8 6.9 18 0 24.9zm-22.8-22.8c-5.7 5.6-5.7 14.9 0 20.7 5.7 5.7 14.9 5.7 20.7-0.1 5.7-5.7 5.7-15 0-20.6-5.7-5.7-15-5.7-20.7 0z"/>
								</g>
								<g id="&lt;Group&gt;">
									<path id="&lt;Compound Path&gt;" fill-rule="evenodd" class="s0" d="m376 283.8c-6.9 6.9-18.1 6.9-25 0-6.8-6.9-6.9-18.1 0-25 6.9-6.8 18.1-6.8 25 0 6.8 6.9 6.8 18.1 0 25zm-22.8-22.8c-5.7 5.6-5.8 15-0.1 20.7 5.7 5.7 15.1 5.6 20.7-0.1 5.8-5.7 5.7-15 0-20.6-5.6-5.7-15-5.8-20.6 0z"/>
								</g>
							</g>
							<g id="&lt;Group&gt;">
								<g id="&lt;Group&gt;">
									<g id="&lt;Group&gt;" style="opacity: .1">
										<g id="&lt;Group&gt;">
											<path id="&lt;Path&gt;" class="s0" d="m-2 550l49.3-49.3-3-3.1-48.1 48.1-82.2-1-90.4 90.3-34.5 0.1-78.5 78.4 0.1 92.3h4.1l0.1-90.5 75.9-75.9h34.6l90.4-90.4z"/>
										</g>
										<g id="&lt;Group&gt;">
											<path id="&lt;Path&gt;" class="s0" d="m-207.8 881.1l82.6-82.6 0.1-116.2 59.2-59.2h110.6l191.2-191.2v-89.3l63.3-63.4-3-3-64.7 64.7v89.3l-188.6 188.6h-110.7l-61.5 61.7-0.2 116.2-81.3 81.4z"/>
										</g>
										<g id="&lt;Group&gt;">
											<path id="&lt;Path&gt;" class="s0" d="m271.6 482.4l129.8-129.6-0.1-45.7 93.9-93.8-3.1-3-95.1 95v45.7l-127.1 127.1-155.9 0.1-119.1 119h-108.4l-144 144.1-0.1 48.3-23.9 24 3.1 3 25.2-25.2v-48.3l141.5-141.6 108.4 0.1 119.1-119.2z"/>
										</g>
										<g id="&lt;Group&gt;">
											<path id="&lt;Path&gt;" class="s0" d="m182.9 936.7l52.9-52.8v-108.7l69.1-69-0.1-306.6 56.3-56.3-3.1-3.1-57.4 57.6v306.5l-69.1 69.1v108.7l-51.6 51.6z"/>
										</g>
										<g id="&lt;Group&gt;">
											<path id="&lt;Path&gt;" class="s0" d="m-52.3 831.9l77.1-77.1v-62l169.3-169.3-6.1-6.1-171.8 171.8v62l-72.2 72.1h-78.7l-68.5 68.5 6 6.1 66.1-66z"/>
										</g>
										<g id="&lt;Group&gt;">
											<path id="&lt;Path&gt;" class="s0" d="m139.2 754.1l122.4-122.5-3-3-121.2 121.2h-76.2l-132.5 132.5h-49.3l-51.2 51.2 3.1 3 49.9-49.9 49.2 0.1 132.6-132.5z"/>
										</g>
										<g id="&lt;Group&gt;">
											<path id="&lt;Path&gt;" class="s0" d="m108.5 897.3l54.2-54.1-0.1-231.9 75-74.9h111.1l182.3-182.3h61.9l43.9-43.8-6.1-6.1-41.4 41.4h-62l-182.2 182.2h-111.1l-80.1 80 0.2 231.7-49.2 49.2h-49.7l-134.8 134.8 6.1 6.1 132.3-132.3z"/>
										</g>
										<g id="&lt;Group&gt;">
											<path id="&lt;Path&gt;" class="s0" d="m163.8 812.7l200.1-200.1v-183.8l106.4-106.4-6.1-6.1-108.9 109v183.7l-194.9 195h-85.9l-182.8 182.7 6.2 6.2 180.2-180.2z"/>
										</g>
										<g id="&lt;Group&gt;">
											<path id="&lt;Path&gt;" class="s0" d="m605.3 414l67.6-67.6-3.1-3.1-66.4 66.4-90.4-0.1-130 130.1 3 3.1 128.8-128.8z"/>
										</g>
										<g id="&lt;Group&gt;">
											<path id="&lt;Path&gt;" class="s0" d="m131 1137.9l232.8-232.7v-131.9l118.9-118.9-0.1-93.3 47.2-47.3-3.1-3-48.4 48.5v93.3l-118.8 118.8v131.9l-230.3 230.3-83.3 0.1-14.8 14.8 3.1 3 13.5-13.6z"/>
										</g>
										<g id="&lt;Group&gt;">
											<path id="&lt;Path&gt;" class="s0" d="m250.8 1180.6l196.2-196.2v-40.6l106.7-106.7v-278.1l187.6-187.7h56v-4.3h-57.8l-190.1 190.1v278.3l-106.7 106.6 0.1 40.6-193.8 193.6-30.4 0.1-76.8 76.8 3.1 3.1 75.5-75.5z"/>
										</g>
										<g id="&lt;Group&gt;">
											<path id="&lt;Path&gt;" class="s0" d="m473.3 700.2l161-160.9-3-3.1-159.8 159.8h-117.8l-211.3 211.2h-134l-103.2 103.2 3 3.1 102-102 134 0.1 211.2-211.3z"/>
										</g>
										<g id="&lt;Group&gt;">
											<path id="&lt;Path&gt;" class="s0" d="m39.7 505.2c3.4 3.4 8.9 3.4 12.2 0.1 3.4-3.4 3.4-8.9 0-12.3-3.3-3.3-8.8-3.3-12.2 0.1-3.3 3.3-3.3 8.7 0 12.1z"/>
										</g>
										<g id="&lt;Group&gt;">
											<path id="&lt;Path&gt;" class="s0" d="m292.1 284.3c3.3 3.5 8.7 3.5 12.2 0 3.3-3.3 3.3-8.8-0.1-12.2-3.3-3.3-8.7-3.3-12.1 0-3.3 3.4-3.3 8.9 0 12.2z"/>
										</g>
										<g id="&lt;Group&gt;">
											<path id="&lt;Path&gt;" class="s0" d="m354 350.4c3.3 3.3 8.8 3.3 12.2-0.1 3.4-3.3 3.4-8.8 0-12.1-3.4-3.4-8.8-3.4-12.1-0.1-3.5 3.5-3.5 8.9-0.1 12.3z"/>
										</g>
										<g id="&lt;Group&gt;">
											<path id="&lt;Path&gt;" class="s0" d="m664.3 351.9c3.3 3.4 8.8 3.4 12.1 0 3.4-3.3 3.4-8.8 0.1-12.2-3.4-3.3-8.9-3.3-12.2 0.1-3.5 3.3-3.4 8.8 0 12.1z"/>
										</g>
										<g id="&lt;Group&gt;">
											<path id="&lt;Path&gt;" class="s0" d="m378.4 547.3c3.3 3.4 8.8 3.4 12.2 0 3.4-3.3 3.3-8.8 0-12.2-3.4-3.3-8.9-3.4-12.3 0-3.3 3.3-3.3 8.8 0.1 12.2z"/>
										</g>
										<g id="&lt;Group&gt;">
											<path id="&lt;Path&gt;" class="s0" d="m520.6 518.9c3.4 3.4 8.8 3.4 12.1 0 3.4-3.3 3.4-8.7 0-12.1-3.3-3.4-8.8-3.4-12.1-0.1-3.4 3.4-3.4 8.9 0 12.2z"/>
										</g>
										<g id="&lt;Group&gt;">
											<path id="&lt;Path&gt;" class="s0" d="m546 566.6c3.3 3.4 8.8 3.4 12.1 0 3.3-3.3 3.4-8.7 0-12.1-3.3-3.3-8.8-3.3-12.2 0-3.3 3.4-3.3 8.8 0.1 12.1z"/>
										</g>
										<g id="&lt;Group&gt;">
											<path id="&lt;Path&gt;" class="s0" d="m228.4 777.6c3.4 3.5 8.8 3.3 12.2 0 3.3-3.4 3.3-8.8 0-12.1-3.4-3.4-8.9-3.4-12.2-0.1-3.4 3.3-3.4 8.8 0 12.2z"/>
										</g>
										<g id="&lt;Group&gt;">
											<path id="&lt;Path&gt;" class="s0" d="m54.7 756.3c3.4 3.4 8.8 3.4 12.2 0 3.3-3.4 3.3-8.9 0-12.2-3.4-3.4-8.8-3.3-12.2 0-3.3 3.4-3.4 8.8 0 12.2z"/>
										</g>
										<g id="&lt;Group&gt;">
											<path id="&lt;Path&gt;" class="s0" d="m227.6 437.1c3.4 3.4 8.8 3.4 12.2 0.1 3.4-3.4 3.3-8.8-0.1-12.2-3.3-3.3-8.7-3.4-12.1 0-3.4 3.3-3.3 8.8 0 12.1z"/>
										</g>
										<g id="&lt;Group&gt;">
											<path id="&lt;Path&gt;" class="s0" d="m252.5 635.7c3.4 3.3 8.8 3.4 12.2 0.1 3.3-3.4 3.3-8.9-0.1-12.3-3.3-3.3-8.8-3.3-12.1 0-3.4 3.4-3.3 8.8 0 12.2z"/>
										</g>
										<g id="&lt;Group&gt;">
											<path id="&lt;Path&gt;" class="s0" d="m354.6 778.8c3.3 3.4 8.7 3.4 12.2 0.1 3.3-3.4 3.3-8.8-0.1-12.2-3.3-3.3-8.8-3.3-12.1 0-3.4 3.4-3.3 8.8 0 12.1z"/>
										</g>
										<g id="&lt;Group&gt;">
											<path id="&lt;Path&gt;" class="s0" d="m354 908.8c3.4 3.4 8.8 3.4 12.2 0 3.4-3.4 3.4-8.8 0-12.2-3.4-3.3-8.8-3.3-12.2 0.1-3.3 3.3-3.3 8.8 0 12.1z"/>
										</g>
										<g id="&lt;Group&gt;">
											<path id="&lt;Path&gt;" class="s0" d="m793.2 374.2c3.4 3.4 8.8 3.4 12.1 0 3.4-3.3 3.5-8.7 0.1-12.1-3.4-3.4-8.9-3.4-12.2 0-3.4 3.3-3.4 8.8 0 12.1z"/>
										</g>
										<g id="&lt;Group&gt;">
											<path id="&lt;Path&gt;" class="s0" d="m625.2 544.3c3.3 3.4 8.8 3.4 12.1 0 3.4-3.3 3.4-8.8 0-12.2-3.3-3.3-8.8-3.3-12.2 0.1-3.3 3.3-3.3 8.8 0.1 12.1z"/>
										</g>
										<g id="&lt;Group&gt;">
											<path id="&lt;Path&gt;" class="s0" d="m177.8 935.8c3.4 3.4 8.8 3.3 12.2-0.1 3.4-3.4 3.4-8.7 0-12.1-3.3-3.4-8.8-3.4-12.1 0-3.4 3.3-3.4 8.8-0.1 12.2z"/>
										</g>
										<g id="&lt;Group&gt;">
											<path id="&lt;Path&gt;" class="s0" d="m-126.5 890.8c3.4 3.4 8.7 3.3 12.2-0.1 3.3-3.3 3.4-8.7 0-12.1-3.4-3.3-8.8-3.3-12.1 0-3.4 3.4-3.4 8.9-0.1 12.2z"/>
										</g>
										<g id="&lt;Group&gt;">
											<path id="&lt;Path&gt;" class="s0" d="m348.5 704.3c3.4 3.4 8.8 3.4 12.2 0 3.4-3.3 3.4-8.8 0-12.2-3.4-3.4-8.8-3.3-12.2 0.1-3.3 3.3-3.3 8.7 0 12.1z"/>
										</g>
										<g id="&lt;Group&gt;">
											<path id="&lt;Path&gt;" class="s0" d="m108.7 486.4c3.5 3.4 8.9 3.4 12.2 0 3.5-3.4 3.5-8.8 0-12.2-3.3-3.4-8.7-3.4-12.1 0.1-3.4 3.3-3.4 8.7-0.1 12.1z"/>
										</g>
										<g id="&lt;Group&gt;">
											<path id="&lt;Path&gt;" class="s0" d="m-91.5 554.2c3.3 3.4 8.8 3.4 12.2 0 3.3-3.4 3.3-8.9 0-12.2-3.4-3.3-8.9-3.3-12.2 0-3.4 3.4-3.4 8.9 0 12.2z"/>
										</g>
										<g id="&lt;Group&gt;">
											<path id="&lt;Path&gt;" class="s0" d="m-216.4 643.3c3.3 3.4 8.8 3.4 12.2 0 3.3-3.3 3.3-8.8 0-12.1-3.4-3.4-8.9-3.4-12.2-0.1-3.4 3.4-3.4 8.9 0 12.2z"/>
										</g>
										<g id="&lt;Group&gt;">
											<path id="&lt;Path&gt;" class="s0" d="m-293.4 720.4c3.4 3.3 8.7 3.3 12.2-0.1 3.3-3.3 3.3-8.8 0-12.1-3.5-3.4-8.9-3.5-12.2-0.1-3.4 3.4-3.4 8.9 0 12.3z"/>
										</g>
										<g id="&lt;Group&gt;">
											<path id="&lt;Path&gt;" class="s0" d="m-263.1 747.8c3.4 3.4 8.9 3.4 12.3 0 3.4-3.4 3.4-8.9 0-12.3-3.3-3.3-8.7-3.3-12.2 0.1-3.3 3.4-3.4 8.8-0.1 12.2z"/>
										</g>
										<g id="&lt;Group&gt;">
											<path id="&lt;Path&gt;" class="s0" d="m-132.4 687.2c3.4 3.4 8.9 3.4 12.2 0 3.4-3.4 3.4-8.8 0-12.1-3.4-3.4-8.8-3.4-12.2-0.1-3.4 3.4-3.4 8.9 0 12.2z"/>
										</g>
										<g id="&lt;Group&gt;">
											<path id="&lt;Path&gt;" class="s0" d="m37.7 627c3.4 3.4 8.8 3.4 12.1 0.1 3.4-3.4 3.4-8.9 0-12.3-3.3-3.3-8.8-3.3-12.1 0.1-3.4 3.3-3.3 8.8 0 12.1z"/>
										</g>
										<g id="&lt;Group&gt;">
											<path id="&lt;Path&gt;" class="s0" d="m486 219.5c3.3 3.3 8.8 3.3 12.2-0.1 3.4-3.3 3.4-8.8 0-12.2-3.4-3.4-8.8-3.4-12.2 0-3.3 3.4-3.4 8.8 0 12.3z"/>
										</g>
										<g id="&lt;Group&gt;">
											<path id="&lt;Path&gt;" class="s0" d="m458.1 328.5c4.8 4.8 12.6 4.8 17.3 0.1 4.8-4.8 4.7-12.5-0.1-17.3-4.7-4.7-12.4-4.8-17.2-0.1-4.8 4.9-4.7 12.6 0 17.3z"/>
										</g>
										<g id="&lt;Group&gt;">
											<path id="&lt;Path&gt;" class="s0" d="m182 529.9c4.8 4.8 12.5 4.8 17.2 0 4.9-4.6 4.9-12.5 0.1-17.3-4.7-4.7-12.5-4.6-17.2 0.1-4.8 4.8-4.8 12.5-0.1 17.2z"/>
										</g>
										<g id="&lt;Group&gt;">
											<path id="&lt;Path&gt;" class="s0" d="m11.9 700.9c4.8 4.8 12.4 4.8 17.2 0 4.7-4.7 4.7-12.5 0-17.2-4.8-4.8-12.5-4.8-17.2-0.1-4.8 4.8-4.8 12.5 0 17.3z"/>
										</g>
										<g id="&lt;Group&gt;">
											<path id="&lt;Path&gt;" class="s0" d="m626.7 315.4c4.7 4.8 12.5 4.7 17.1-0.2 4.8-4.6 4.9-12.3 0.1-17.1-4.7-4.8-12.5-4.7-17.2 0-4.8 4.8-4.8 12.5 0 17.3z"/>
										</g>
									</g>
									<g id="&lt;Group&gt;" style="opacity: .2">
										<g id="&lt;Group&gt;">
											<path id="&lt;Path&gt;" class="s0" d="m74.8 570.8l36.5-36.5-2.2-2.2-35.6 35.6-60.8-0.8-66.9 66.9h-25.5l-58 58v68.3l3.2-0.1v-66.9l56.1-56.1h25.6l66.8-66.9z"/>
										</g>
										<g id="&lt;Group&gt;">
											<path id="&lt;Path&gt;" class="s0" d="m-77.3 815.8l61-61.1 0.1-86 43.7-43.7 81.8-0.1 141.5-141.4v-66.1l46.8-46.8-2.3-2.2-47.8 47.8v66l-139.5 139.6h-81.8l-45.6 45.6-0.1 85.9-60.1 60.2z"/>
										</g>
										<g id="&lt;Group&gt;">
											<path id="&lt;Path&gt;" class="s0" d="m277.2 520.9l95.9-96v-33.7l69.4-69.4-2.2-2.3-70.3 70.3v33.9l-94.1 94h-115.3l-88 88.1h-80.3l-106.5 106.5v35.8l-17.7 17.7 2.3 2.3 18.7-18.7-0.1-35.8 104.7-104.6h80.2l88.1-88.1z"/>
										</g>
										<g id="&lt;Group&gt;">
											<path id="&lt;Path&gt;" class="s0" d="m211.6 856.9l39-39.1 0.2-80.5 51-51v-226.8l41.5-41.5-2.2-2.2-42.5 42.4v226.8l-51.1 51.1v80.3l-38.2 38.2z"/>
										</g>
										<g id="&lt;Group&gt;">
											<path id="&lt;Path&gt;" class="s0" d="m37.7 779.4l57-57.1v-45.8l125.2-125.3-4.5-4.5-127.2 127.1v45.8l-53.3 53.4h-58.2l-50.7 50.7 4.5 4.4 48.7-48.7z"/>
										</g>
										<g id="&lt;Group&gt;">
											<path id="&lt;Path&gt;" class="s0" d="m179.2 721.8l90.6-90.6-2.3-2.2-89.6 89.6h-56.4l-97.9 98h-36.4l-38 37.9 2.3 2.2 36.9-36.9h36.4l98.1-98z"/>
										</g>
										<g id="&lt;Group&gt;">
											<path id="&lt;Path&gt;" class="s0" d="m156.5 827.7l40.1-40-0.1-171.5 55.4-55.4h82.3l134.8-134.8h45.8l32.5-32.5-4.6-4.5-30.6 30.6h-45.7l-134.9 134.9-82.2-0.1-59.1 59.1v171.5l-36.3 36.3h-36.8l-99.7 99.8 4.5 4.5 97.9-97.9z"/>
										</g>
										<g id="&lt;Group&gt;">
											<path id="&lt;Path&gt;" class="s0" d="m197.5 765.1l148-148v-135.9l78.6-78.6-4.5-4.6-80.5 80.5v136l-144.2 144.2h-63.5l-135.2 135.2 4.5 4.5 133.3-133.3z"/>
										</g>
										<g id="&lt;Group&gt;">
											<path id="&lt;Path&gt;" class="s0" d="m524 470.3l49.9-50.1-2.2-2.2-49.1 49h-66.8l-96.3 96.3 2.3 2.2 95.3-95.3z"/>
										</g>
										<g id="&lt;Group&gt;">
											<path id="&lt;Path&gt;" class="s0" d="m173.2 1005.7l172.2-172.1v-97.7l87.9-87.9-0.1-69 35-34.9-2.3-2.3-35.8 35.9v69l-87.9 87.8v97.7l-170.3 170.3h-61.6l-10.9 11 2.2 2.2 10.1-10z"/>
										</g>
										<g id="&lt;Group&gt;">
											<path id="&lt;Path&gt;" class="s0" d="m261.8 1037.3l145.1-145.2v-30l78.9-78.9v-205.7l138.7-138.8h41.4v-3.2h-42.6l-140.7 140.7v205.7l-78.8 78.8v30.1l-143.3 143.3h-22.5l-56.8 56.7 2.2 2.3 55.9-55.8z"/>
										</g>
										<g id="&lt;Group&gt;">
											<path id="&lt;Path&gt;" class="s0" d="m426.3 682l119.1-119.1-2.2-2.2-118.2 118.2-87.2-0.1-156.2 156.3h-99.1l-76.3 76.3 2.2 2.2 75.4-75.4 99.2 0.1 156.2-156.3z"/>
										</g>
										<g id="&lt;Group&gt;">
											<path id="&lt;Path&gt;" class="s0" d="m105.7 537.7c2.5 2.5 6.5 2.6 9 0.1 2.4-2.5 2.5-6.6 0-9.1-2.5-2.5-6.5-2.5-9 0-2.5 2.6-2.5 6.5 0 9z"/>
										</g>
										<g id="&lt;Group&gt;">
											<path id="&lt;Path&gt;" class="s0" d="m292.3 374.3c2.5 2.6 6.5 2.5 9 0 2.5-2.5 2.5-6.5 0-9-2.4-2.4-6.5-2.5-9 0.1-2.5 2.4-2.5 6.5 0 8.9z"/>
										</g>
										<g id="&lt;Group&gt;">
											<path id="&lt;Path&gt;" class="s0" d="m338.1 423.2c2.5 2.5 6.5 2.5 9.1 0 2.4-2.5 2.5-6.6 0-9-2.5-2.5-6.6-2.5-9.1 0-2.5 2.5-2.5 6.5 0 9z"/>
										</g>
										<g id="&lt;Group&gt;">
											<path id="&lt;Path&gt;" class="s0" d="m567.6 424.3c2.4 2.5 6.5 2.6 9 0 2.5-2.4 2.5-6.5 0-9-2.5-2.5-6.6-2.4-9 0-2.5 2.5-2.5 6.5 0 9z"/>
										</g>
										<g id="&lt;Group&gt;">
											<path id="&lt;Path&gt;" class="s0" d="m356.2 568.9c2.5 2.4 6.5 2.4 9 0 2.6-2.6 2.5-6.6 0-9.1-2.5-2.4-6.5-2.5-9 0-2.5 2.5-2.5 6.5 0 9.1z"/>
										</g>
										<g id="&lt;Group&gt;">
											<path id="&lt;Path&gt;" class="s0" d="m461.3 547.9c2.6 2.5 6.5 2.4 9-0.1 2.5-2.5 2.5-6.5 0-8.9-2.5-2.5-6.5-2.5-9-0.1-2.5 2.5-2.5 6.5 0 9.1z"/>
										</g>
										<g id="&lt;Group&gt;">
											<path id="&lt;Path&gt;" class="s0" d="m480.1 583.2c2.5 2.5 6.5 2.5 9 0 2.4-2.5 2.5-6.5 0-9-2.5-2.5-6.6-2.5-9.1 0-2.4 2.4-2.4 6.5 0.1 9z"/>
										</g>
										<g id="&lt;Group&gt;">
											<path id="&lt;Path&gt;" class="s0" d="m245.2 739.2c2.5 2.5 6.5 2.5 9-0.1 2.5-2.4 2.5-6.4 0-8.9-2.5-2.5-6.5-2.5-9-0.1-2.4 2.6-2.4 6.6 0 9.1z"/>
										</g>
										<g id="&lt;Group&gt;">
											<path id="&lt;Path&gt;" class="s0" d="m116.7 723.4c2.6 2.5 6.6 2.5 9.1 0 2.5-2.5 2.4-6.5 0-9-2.5-2.5-6.5-2.5-9 0-2.5 2.5-2.6 6.6-0.1 9z"/>
										</g>
										<g id="&lt;Group&gt;">
											<path id="&lt;Path&gt;" class="s0" d="m244.7 487.3c2.5 2.5 6.5 2.5 8.9 0.1 2.5-2.5 2.5-6.5 0.1-9.1-2.5-2.4-6.6-2.5-9.1 0.1-2.5 2.4-2.5 6.5 0.1 8.9z"/>
										</g>
										<g id="&lt;Group&gt;">
											<path id="&lt;Path&gt;" class="s0" d="m263.1 634.2c2.5 2.5 6.5 2.6 9 0 2.4-2.4 2.4-6.5-0.1-8.9-2.5-2.5-6.5-2.6-8.9-0.1-2.6 2.5-2.5 6.5 0 9z"/>
										</g>
										<g id="&lt;Group&gt;">
											<path id="&lt;Path&gt;" class="s0" d="m338.6 740.1c2.5 2.4 6.5 2.6 9 0.1 2.4-2.5 2.4-6.6-0.1-9.1-2.5-2.5-6.5-2.4-9 0-2.5 2.5-2.4 6.5 0.1 9z"/>
										</g>
										<g id="&lt;Group&gt;">
											<path id="&lt;Path&gt;" class="s0" d="m338.1 836.2c2.5 2.5 6.6 2.6 9.1 0 2.4-2.4 2.5-6.5 0-9-2.5-2.5-6.5-2.4-9 0.1-2.5 2.5-2.6 6.5-0.1 8.9z"/>
										</g>
										<g id="&lt;Group&gt;">
											<path id="&lt;Path&gt;" class="s0" d="m663 440.9c2.4 2.5 6.5 2.4 8.9 0 2.5-2.6 2.5-6.6 0.1-9-2.5-2.6-6.5-2.6-9.1 0-2.4 2.4-2.5 6.5 0.1 9z"/>
										</g>
										<g id="&lt;Group&gt;">
											<path id="&lt;Path&gt;" class="s0" d="m538.7 566.6c2.5 2.5 6.5 2.5 9 0 2.5-2.5 2.5-6.5 0-8.9-2.5-2.5-6.6-2.5-9-0.1-2.5 2.5-2.5 6.5 0 9z"/>
										</g>
										<g id="&lt;Group&gt;">
											<path id="&lt;Path&gt;" class="s0" d="m207.8 856.1c2.6 2.6 6.5 2.5 9 0 2.5-2.5 2.6-6.4 0-8.9-2.4-2.5-6.5-2.5-8.9 0-2.5 2.4-2.6 6.5-0.1 8.9z"/>
										</g>
										<g id="&lt;Group&gt;">
											<path id="&lt;Path&gt;" class="s0" d="m-17.3 822.9c2.5 2.5 6.5 2.5 9 0 2.6-2.5 2.6-6.5 0-9-2.4-2.5-6.4-2.5-9 0-2.5 2.5-2.5 6.5 0 9z"/>
										</g>
										<g id="&lt;Group&gt;">
											<path id="&lt;Path&gt;" class="s0" d="m334.1 685c2.4 2.5 6.5 2.5 9 0 2.5-2.5 2.5-6.6-0.1-9.1-2.4-2.5-6.5-2.4-8.9 0-2.6 2.6-2.6 6.6 0 9.1z"/>
										</g>
										<g id="&lt;Group&gt;">
											<path id="&lt;Path&gt;" class="s0" d="m156.8 523.8c2.4 2.5 6.4 2.5 9 0 2.5-2.5 2.5-6.5 0-9-2.5-2.5-6.6-2.5-9 0-2.5 2.5-2.5 6.5 0 9z"/>
										</g>
										<g id="&lt;Group&gt;">
											<path id="&lt;Path&gt;" class="s0" d="m8.6 574c2.5 2.5 6.6 2.4 9 0 2.5-2.6 2.6-6.6 0-9-2.4-2.5-6.5-2.6-9-0.1-2.5 2.5-2.5 6.6 0 9.1z"/>
										</g>
										<g id="&lt;Group&gt;">
											<path id="&lt;Path&gt;" class="s0" d="m-83.8 639.9c2.6 2.4 6.6 2.4 9-0.1 2.6-2.5 2.6-6.5 0-9-2.4-2.4-6.4-2.5-9 0-2.4 2.5-2.4 6.5 0 9.1z"/>
										</g>
										<g id="&lt;Group&gt;">
											<path id="&lt;Path&gt;" class="s0" d="m-140.7 696.8c2.5 2.5 6.5 2.5 9 0 2.5-2.5 2.5-6.5 0-9-2.5-2.5-6.5-2.5-9 0-2.5 2.5-2.5 6.5 0 9z"/>
										</g>
										<g id="&lt;Group&gt;">
											<path id="&lt;Path&gt;" class="s0" d="m-118.2 717.1c2.5 2.5 6.5 2.5 9 0 2.5-2.5 2.5-6.6 0-9-2.4-2.5-6.5-2.5-9 0-2.5 2.5-2.5 6.5 0 9z"/>
										</g>
										<g id="&lt;Group&gt;">
											<path id="&lt;Path&gt;" class="s0" d="m-21.6 672.3c2.5 2.5 6.5 2.5 9 0 2.5-2.5 2.5-6.5 0-9-2.5-2.5-6.5-2.5-9 0-2.5 2.5-2.5 6.5 0 9z"/>
										</g>
										<g id="&lt;Group&gt;">
											<path id="&lt;Path&gt;" class="s0" d="m104.2 627.8c2.5 2.5 6.5 2.5 9 0 2.5-2.5 2.5-6.5 0-9-2.4-2.5-6.5-2.5-9 0-2.5 2.5-2.4 6.5 0 9z"/>
										</g>
										<g id="&lt;Group&gt;">
											<path id="&lt;Path&gt;" class="s0" d="m435.8 326.3c2.4 2.5 6.5 2.5 9 0 2.5-2.4 2.5-6.5-0.1-9-2.4-2.5-6.5-2.5-8.9 0-2.5 2.5-2.5 6.5 0 9z"/>
										</g>
										<g id="&lt;Group&gt;">
											<path id="&lt;Path&gt;" class="s0" d="m415.1 407c3.6 3.6 9.3 3.6 12.8 0 3.5-3.4 3.5-9.2 0-12.7-3.6-3.6-9.2-3.6-12.8 0-3.5 3.5-3.5 9.2 0 12.7z"/>
										</g>
										<g id="&lt;Group&gt;">
											<path id="&lt;Path&gt;" class="s0" d="m210.9 556c3.5 3.5 9.3 3.5 12.8 0 3.5-3.5 3.6-9.3 0-12.8-3.5-3.5-9.2-3.4-12.8 0.1-3.4 3.5-3.5 9.2 0 12.7z"/>
										</g>
										<g id="&lt;Group&gt;">
											<path id="&lt;Path&gt;" class="s0" d="m85 682.5c3.6 3.5 9.3 3.5 12.8 0 3.5-3.6 3.5-9.2 0-12.8-3.5-3.5-9.2-3.5-12.7 0-3.6 3.5-3.5 9.3-0.1 12.8z"/>
										</g>
										<g id="&lt;Group&gt;">
											<path id="&lt;Path&gt;" class="s0" d="m539.8 397.3c3.5 3.5 9.2 3.5 12.7 0 3.6-3.5 3.6-9.3 0.1-12.8-3.6-3.5-9.3-3.5-12.8 0.1-3.5 3.4-3.6 9.2 0 12.7z"/>
										</g>
									</g>
									<g id="&lt;Group&gt;">
										<g id="&lt;Group&gt;">
											<path id="&lt;Path&gt;" class="s0" d="m102.5 578.4l31.8-31.9-1.9-1.9-31.1 31-53.1-0.6-58.3 58.3h-22.3l-50.7 50.6v59.6h2.8l0.1-58.4 49-49h22.2l58.4-58.4z"/>
										</g>
										<g id="&lt;Group&gt;">
											<path id="&lt;Path&gt;" class="s0" d="m-30.3 792.2l53.3-53.4v-75l38.2-38.3 71.5 0.1 123.4-123.5v-57.7l40.9-40.8-2-2-41.7 41.7v57.7l-121.8 121.8h-71.5l-39.7 39.8-0.1 75.1-52.5 52.5z"/>
										</g>
										<g id="&lt;Group&gt;">
											<path id="&lt;Path&gt;" class="s0" d="m279.2 534.7l83.8-83.7v-29.5l60.5-60.6-1.9-2-61.4 61.5v29.4l-82.1 82.2h-100.7l-76.9 76.9-69.9-0.1-93 93-0.1 31.3-15.4 15.4 1.9 2 16.3-16.3v-31.2l91.3-91.3h70.1l76.9-77z"/>
										</g>
										<g id="&lt;Group&gt;">
											<path id="&lt;Path&gt;" class="s0" d="m221.9 828.1l34.2-34.1v-70.2l44.6-44.6 0.1-198 36.2-36.3-2-2-37.1 37.1v198l-44.6 44.6v70.2l-33.4 33.4z"/>
										</g>
										<g id="&lt;Group&gt;">
											<path id="&lt;Path&gt;" class="s0" d="m70 760.4l49.8-49.8v-40l109.4-109.4-3.9-3.9-111.1 110.9v40.1l-46.6 46.6h-50.8l-44.2 44.2 3.9 3.9 42.7-42.6z"/>
										</g>
										<g id="&lt;Group&gt;">
											<path id="&lt;Path&gt;" class="s0" d="m193.6 710.1l79.1-79-1.9-1.9-78.3 78.2h-49.2l-85.5 85.5h-31.8l-33.1 33.1 2 2 32.2-32.3h31.8l85.6-85.5z"/>
										</g>
										<g id="&lt;Group&gt;">
											<path id="&lt;Path&gt;" class="s0" d="m173.9 802.6l34.9-35v-149.6l48.4-48.4h71.8l117.7-117.7h40l28.3-28.3-3.9-4-26.7 26.7h-40.1l-117.6 117.7h-71.9l-51.6 51.6v149.7l-31.7 31.7h-32l-87.1 87.1 3.9 4 85.5-85.4z"/>
										</g>
										<g id="&lt;Group&gt;">
											<path id="&lt;Path&gt;" class="s0" d="m209.6 748l129.1-129.2v-118.7l68.8-68.7-3.9-4-70.3 70.4v118.7l-126 125.9h-55.4l-118 118 3.9 3.9 116.4-116.3z"/>
										</g>
										<g id="&lt;Group&gt;">
											<path id="&lt;Path&gt;" class="s0" d="m494.6 490.5l43.8-43.7-2.1-1.9-42.9 42.9-58.2-0.1-84 84 1.9 2 83.1-83.2z"/>
										</g>
										<g id="&lt;Group&gt;">
											<path id="&lt;Path&gt;" class="s0" d="m188.5 958l150.2-150.3v-85.2l76.7-76.7v-60.4l30.5-30.4-2.1-1.9-31.1 31.2v60.3l-76.7 76.7v85.3l-148.8 148.7h-53.7l-9.6 9.5 2 2 8.7-8.8z"/>
										</g>
										<g id="&lt;Group&gt;">
											<path id="&lt;Path&gt;" class="s0" d="m265.8 985.6l126.7-126.7v-26.2l68.9-68.9v-179.6l121.1-121.2h36.2l-0.1-2.8h-37.3l-122.7 122.8v179.7l-68.9 68.8 0.1 26.2-125.1 125.1h-19.7l-49.6 49.6 1.9 1.9 48.8-48.7z"/>
										</g>
										<g id="&lt;Group&gt;">
											<path id="&lt;Path&gt;" class="s0" d="m409.4 675.5l104-104.1-2-1.9-103.2 103.1h-76l-136.4 136.4h-86.6l-66.6 66.7 1.9 1.9 65.8-65.8h86.6l136.4-136.3z"/>
										</g>
										<g id="&lt;Group&gt;">
											<path id="&lt;Path&gt;" class="s0" d="m129.4 549.4c2.2 2.2 5.7 2.2 7.9 0.1 2.2-2.2 2.2-5.7 0-7.9-2.2-2.2-5.7-2.2-7.9 0-2.1 2.2-2.1 5.6 0 7.8z"/>
										</g>
										<g id="&lt;Group&gt;">
											<path id="&lt;Path&gt;" class="s0" d="m332.4 449.4c2.2 2.2 5.7 2.2 7.9 0.1 2.1-2.2 2.2-5.7 0-7.9-2.2-2.2-5.8-2.2-7.9 0-2.2 2.2-2.2 5.7 0 7.8z"/>
										</g>
										<g id="&lt;Group&gt;">
											<path id="&lt;Path&gt;" class="s0" d="m532.8 450.4c2.1 2.2 5.6 2.2 7.8 0 2.1-2.1 2.1-5.7 0.1-7.9-2.2-2.2-5.8-2.1-8 0.1-2.2 2.2-2.1 5.6 0.1 7.8z"/>
										</g>
										<g id="&lt;Group&gt;">
											<path id="&lt;Path&gt;" class="s0" d="m348.1 576.6c2.2 2.2 5.8 2.2 7.9 0 2.2-2.1 2.2-5.6 0-7.9-2.1-2.1-5.7-2.1-7.9 0-2.1 2.2-2.1 5.8 0 7.9z"/>
										</g>
										<g id="&lt;Group&gt;">
											<path id="&lt;Path&gt;" class="s0" d="m440 558.2c2.2 2.3 5.7 2.2 7.8 0.1 2.2-2.2 2.2-5.6 0-7.9-2.2-2.1-5.6-2.2-7.9 0-2.1 2.2-2.1 5.7 0.1 7.8z"/>
										</g>
										<g id="&lt;Group&gt;">
											<path id="&lt;Path&gt;" class="s0" d="m456.4 589.1c2.1 2.2 5.7 2.2 7.8 0 2.2-2.1 2.2-5.6 0-7.8-2.1-2.2-5.7-2.2-7.9 0-2.1 2.1-2.1 5.6 0.1 7.8z"/>
										</g>
										<g id="&lt;Group&gt;">
											<path id="&lt;Path&gt;" class="s0" d="m251.3 725.4c2.2 2.1 5.7 2.1 7.8-0.1 2.2-2.2 2.2-5.6 0-7.8-2.2-2.2-5.6-2.2-7.8-0.1-2.2 2.2-2.2 5.8 0 8z"/>
										</g>
										<g id="&lt;Group&gt;">
											<path id="&lt;Path&gt;" class="s0" d="m139.1 711.6c2.2 2.1 5.7 2.1 7.9 0 2.2-2.2 2.2-5.8 0-7.9-2.2-2.2-5.6-2.2-7.8 0-2.2 2.2-2.2 5.7-0.1 7.9z"/>
										</g>
										<g id="&lt;Group&gt;">
											<path id="&lt;Path&gt;" class="s0" d="m250.8 505.5c2.2 2.2 5.7 2.2 7.9 0 2.1-2.2 2.1-5.7-0.1-7.9-2.1-2.1-5.6-2.2-7.8 0-2.2 2.2-2.2 5.7 0 7.9z"/>
										</g>
										<g id="&lt;Group&gt;">
											<path id="&lt;Path&gt;" class="s0" d="m266.8 633.7c2.2 2.1 5.8 2.1 8 0 2.1-2.2 2-5.7-0.1-7.8-2.2-2.2-5.7-2.3-7.9-0.1-2.2 2.2-2.1 5.7 0 7.9z"/>
										</g>
										<g id="&lt;Group&gt;">
											<path id="&lt;Path&gt;" class="s0" d="m332.8 726.1c2.1 2.2 5.7 2.2 7.9 0.1 2-2.2 2-5.7-0.1-7.9-2.1-2.1-5.7-2.2-7.8-0.1-2.2 2.2-2.1 5.8 0 7.9z"/>
										</g>
										<g id="&lt;Group&gt;">
											<path id="&lt;Path&gt;" class="s0" d="m332.4 810.1c2.2 2.2 5.8 2.2 7.9 0 2.2-2.2 2.2-5.7 0-7.9-2.2-2.1-5.8-2.1-7.9 0-2.2 2.2-2.2 5.7 0 7.9z"/>
										</g>
										<g id="&lt;Group&gt;">
											<path id="&lt;Path&gt;" class="s0" d="m616 464.9c2.2 2.1 5.7 2.1 7.9 0 2.2-2.3 2.2-5.7 0-7.9-2.2-2.2-5.7-2.2-7.9 0-2.1 2.1-2.1 5.7 0 7.9z"/>
										</g>
										<g id="&lt;Group&gt;">
											<path id="&lt;Path&gt;" class="s0" d="m507.5 574.7c2.2 2.2 5.7 2.1 7.9 0 2.2-2.2 2.1-5.7-0.1-7.8-2.1-2.2-5.6-2.2-7.8-0.1-2.2 2.2-2.2 5.7 0 7.9z"/>
										</g>
										<g id="&lt;Group&gt;">
											<path id="&lt;Path&gt;" class="s0" d="m218.6 827.4c2.2 2.2 5.8 2.3 7.9 0 2.2-2.1 2.3-5.6 0-7.8-2.1-2.1-5.7-2.1-7.8 0-2.2 2.2-2.2 5.7-0.1 7.8z"/>
										</g>
										<g id="&lt;Group&gt;">
											<path id="&lt;Path&gt;" class="s0" d="m22.1 798.4c2.2 2.2 5.7 2.2 7.8 0 2.2-2.2 2.3-5.7 0.1-7.8-2.2-2.2-5.7-2.2-7.9 0-2.2 2.1-2.2 5.6 0 7.8z"/>
										</g>
										<g id="&lt;Group&gt;">
											<path id="&lt;Path&gt;" class="s0" d="m328.9 678c2.1 2.2 5.7 2.2 7.8 0 2.2-2.1 2.1-5.7 0-7.9-2.1-2.1-5.7-2.1-7.9 0.1-2.1 2.1-2.1 5.6 0.1 7.8z"/>
										</g>
										<g id="&lt;Group&gt;">
											<path id="&lt;Path&gt;" class="s0" d="m174 537.3c2.2 2.2 5.8 2.2 7.9 0 2.2-2.2 2.1-5.7 0-7.9-2.1-2.1-5.7-2.1-7.8 0.1-2.2 2.1-2.3 5.6-0.1 7.8z"/>
										</g>
										<g id="&lt;Group&gt;">
											<path id="&lt;Path&gt;" class="s0" d="m44.7 581.1c2.2 2.2 5.7 2.1 7.9 0 2.1-2.2 2.2-5.7 0-7.9-2.2-2.1-5.8-2.2-7.9 0-2.2 2.2-2.2 5.7 0 7.9z"/>
										</g>
										<g id="&lt;Group&gt;">
											<path id="&lt;Path&gt;" class="s0" d="m-35.9 638.6c2.1 2.2 5.6 2.1 7.8 0 2.1-2.1 2.2-5.6 0-7.9-2.2-2.1-5.7-2.1-7.8 0-2.2 2.2-2.2 5.7 0 7.9z"/>
										</g>
										<g id="&lt;Group&gt;">
											<path id="&lt;Path&gt;" class="s0" d="m-85.7 688.4c2.2 2.2 5.7 2.1 7.9 0 2.1-2.2 2.2-5.7 0-7.9-2.1-2.2-5.7-2.2-7.9 0-2.1 2.2-2.1 5.7 0 7.9z"/>
										</g>
										<g id="&lt;Group&gt;">
											<path id="&lt;Path&gt;" class="s0" d="m-66 706.1c2.2 2.1 5.7 2.2 7.8 0 2.2-2.2 2.2-5.8 0.1-7.9-2.2-2.2-5.7-2.1-7.9 0-2.2 2.2-2.2 5.7 0 7.9z"/>
										</g>
										<g id="&lt;Group&gt;">
											<path id="&lt;Path&gt;" class="s0" d="m18.3 667c2.1 2.2 5.7 2.1 7.9-0.1 2.2-2.1 2.2-5.6 0-7.8-2.1-2.2-5.8-2.2-7.9 0-2.1 2.2-2.1 5.7 0 7.9z"/>
										</g>
										<g id="&lt;Group&gt;">
											<path id="&lt;Path&gt;" class="s0" d="m128.2 628.1c2.1 2.2 5.6 2.2 7.8 0 2.2-2.2 2.2-5.7 0-7.9-2.2-2.1-5.7-2.1-7.8 0-2.2 2.2-2.2 5.7 0 7.9z"/>
										</g>
										<g id="&lt;Group&gt;">
											<path id="&lt;Path&gt;" class="s0" d="m417.7 364.8c2.1 2.2 5.7 2.2 7.9 0.1 2.1-2.2 2.1-5.7-0.1-7.9-2.2-2.2-5.7-2.2-7.8 0-2.2 2.2-2.2 5.7 0 7.8z"/>
										</g>
										<g id="&lt;Group&gt;">
											<path id="&lt;Path&gt;" class="s0" d="m399.6 435.4c3.1 3 8.1 3 11.2-0.1 3-3 3.1-8-0.1-11.1-3-3.1-8-3.1-11.1 0-3.1 3.1-3.1 8 0 11.2z"/>
										</g>
										<g id="&lt;Group&gt;">
											<path id="&lt;Path&gt;" class="s0" d="m221.4 565.4c3.1 3.1 8 3.1 11.1 0 3-3.1 3.1-8 0-11.2-3.1-3-8-3-11.2 0.1-3 3-3 8 0.1 11.1z"/>
										</g>
										<g id="&lt;Group&gt;">
											<path id="&lt;Path&gt;" class="s0" d="m111.5 675.8c3 3.1 8 3.1 11.1 0.1 3-3.2 3-8.1 0-11.2-3.1-3.1-8.1-3.1-11.2 0-3.1 3.1-3 8 0.1 11.1z"/>
										</g>
										<g id="&lt;Group&gt;">
											<path id="&lt;Path&gt;" class="s0" d="m508.5 426.8c3 3.1 8 3.1 11.1 0 3.1-3 3.1-8 0-11.1-3.1-3.1-8-3.1-11.2 0-2.9 3.1-3 8.1 0.1 11.1z"/>
										</g>
									</g>
								</g>
								<g id="&lt;Group&gt;">
									<path id="&lt;Compound Path&gt;" fill-rule="evenodd" class="s0" d="m-73.9 694c-5.2 5.1-13.5 5-18.6 0-5.1-5.1-5.1-13.4 0-18.6 5.1-5 13.4-5 18.5 0.1 5.1 5 5.2 13.4 0.1 18.5zm-17-17c-4.3 4.3-4.3 11.2-0.1 15.4 4.3 4.3 11.2 4.3 15.4 0 4.3-4.2 4.3-11.1 0-15.4-4.2-4.2-11.1-4.2-15.3 0z"/>
								</g>
								<g id="&lt;Group&gt;">
									<path id="&lt;Compound Path&gt;" fill-rule="evenodd" class="s0" d="m-23.6 643.6c-5.1 5.2-13.5 5.1-18.5 0-5.1-5.1-5.1-13.4 0-18.5 5-5.1 13.4-5.1 18.5 0 5.1 5.1 5.1 13.4 0 18.5zm-16.9-16.9c-4.3 4.2-4.3 11.1-0.1 15.3 4.3 4.3 11.1 4.2 15.3 0 4.3-4.2 4.3-11.1 0-15.3-4.2-4.2-11-4.2-15.2 0z"/>
								</g>
								<g id="&lt;Group&gt;">
									<path id="&lt;Compound Path&gt;" fill-rule="evenodd" class="s0" d="m56.5 586.4c-5.1 5.1-13.5 5.1-18.6 0-5-5.1-5-13.4 0-18.5 5.1-5.1 13.5-5.1 18.6 0 5.1 5.1 5.1 13.4 0 18.5zm-16.9-16.9c-4.3 4.2-4.3 11.1-0.1 15.3 4.3 4.3 11.1 4.3 15.3 0 4.3-4.2 4.3-11 0-15.3-4.2-4.2-11-4.2-15.2 0z"/>
								</g>
								<g id="&lt;Group&gt;">
									<path id="&lt;Compound Path&gt;" fill-rule="evenodd" class="s0" d="m141.6 554.4c-5.1 5.1-13.4 5.1-18.5 0-5.1-5.1-5.2-13.4 0-18.6 5.1-5.1 13.4-5 18.5 0.1 5.1 5.1 5.1 13.4 0 18.5zm-16.9-16.9c-4.3 4.2-4.3 11.1 0 15.3 4.2 4.3 11.1 4.2 15.3 0 4.3-4.2 4.2-11.1 0-15.3-4.2-4.3-11.1-4.2-15.3 0z"/>
								</g>
								<g id="&lt;Group&gt;">
									<path id="&lt;Compound Path&gt;" fill-rule="evenodd" class="s0" d="m31.8 672.5c-5.2 5.1-13.5 5.1-18.6 0-5-5.1-5.1-13.5 0-18.6 5.1-5.1 13.5-5 18.6 0.1 5.1 5 5.1 13.4 0 18.5zm-17-17c-4.2 4.3-4.2 11.2 0 15.4 4.2 4.3 11.1 4.2 15.4-0.1 4.2-4.1 4.2-11 0-15.3-4.3-4.2-11.1-4.2-15.4 0z"/>
								</g>
								<g id="&lt;Group&gt;">
									<path id="&lt;Compound Path&gt;" fill-rule="evenodd" class="s0" d="m304.6 411.6c-5.1 5.1-13.5 5.1-18.6 0-5.1-5.1-5.1-13.4 0-18.6 5.1-5.1 13.5-5.1 18.6 0 5.1 5.2 5.1 13.5 0 18.6zm-17-16.9c-4.2 4.2-4.2 11.1 0 15.3 4.2 4.3 11.1 4.2 15.3 0 4.3-4.2 4.3-11.1 0-15.4-4.2-4.2-11.1-4.2-15.3 0.1z"/>
								</g>
								<g id="&lt;Group&gt;">
									<path id="&lt;Compound Path&gt;" fill-rule="evenodd" class="s0" d="m231.8 832.2c-5.1 5.2-13.5 5.1-18.6 0-5-5.1-5.1-13.4 0-18.5 5.1-5.1 13.5-5.1 18.6 0 5.1 5.1 5.1 13.4 0 18.5zm-17-16.9c-4.2 4.2-4.2 11.1 0 15.4 4.3 4.2 11.2 4.1 15.4 0 4.2-4.3 4.2-11.2 0-15.4-4.2-4.2-11.1-4.3-15.4 0z"/>
								</g>
								<g id="&lt;Group&gt;">
									<path id="&lt;Compound Path&gt;" fill-rule="evenodd" class="s0" d="m346.6 815.4c-5.2 5.2-13.5 5.1-18.6 0-5.1-5.1-5.1-13.4 0-18.5 5.1-5.1 13.5-5.1 18.6 0 5.1 5.1 5.1 13.4 0 18.5zm-17-16.9c-4.3 4.2-4.3 11.2 0 15.3 4.2 4.3 11.1 4.3 15.3 0 4.3-4.2 4.2-11.1 0-15.3-4.2-4.3-11.1-4.2-15.3 0z"/>
								</g>
								<g id="&lt;Group&gt;">
									<path id="&lt;Compound Path&gt;" fill-rule="evenodd" class="s0" d="m454.1 563.3c-5.1 5.1-13.4 5-18.6 0-5-5.1-5-13.5 0-18.6 5.1-5.1 13.4-5.1 18.5 0 5.2 5.1 5.2 13.5 0.1 18.6zm-17-17c-4.2 4.2-4.2 11.1 0 15.4 4.3 4.2 11.1 4.2 15.4 0 4.2-4.3 4.2-11.2-0.1-15.4-4.2-4.2-11.1-4.2-15.3 0z"/>
								</g>
								<g id="&lt;Group&gt;">
									<path id="&lt;Compound Path&gt;" fill-rule="evenodd" class="s0" d="m628.9 469c-5.1 5.1-13.4 5.1-18.6 0-5-5.1-5-13.4 0-18.6 5.2-5.1 13.5-5.1 18.6 0 5.1 5.2 5.1 13.5 0 18.6zm-16.9-17c-4.3 4.3-4.3 11.2 0 15.4 4.2 4.2 11.1 4.2 15.3 0 4.3-4.2 4.3-11.1 0-15.3-4.2-4.3-11.1-4.3-15.3-0.1z"/>
								</g>
								<g id="&lt;Group&gt;">
									<path id="&lt;Compound Path&gt;" fill-rule="evenodd" class="s0" d="m521.4 579.3c-5.2 5.1-13.5 5.1-18.6 0-5.1-5.1-5.1-13.4 0-18.5 5.1-5.1 13.5-5.2 18.6-0.1 5.1 5.1 5.1 13.5 0 18.6zm-17-17c-4.2 4.3-4.2 11.2 0 15.4 4.2 4.2 11.1 4.2 15.4 0 4.2-4.2 4.1-11.1 0-15.4-4.3-4.1-11.1-4.2-15.4 0z"/>
								</g>
								<g id="&lt;Group&gt;">
									<path id="&lt;Compound Path&gt;" fill-rule="evenodd" class="s0" d="m544.7 455.3c-4.4 4.3-11.4 4.3-15.8-0.1-4.4-4.3-4.4-11.4 0-15.8 4.4-4.3 11.4-4.3 15.8 0 4.3 4.4 4.3 11.5 0 15.9zm-14.5-14.5c-3.5 3.6-3.5 9.4 0 13 3.6 3.6 9.5 3.7 13.1 0 3.7-3.6 3.6-9.4 0-13-3.6-3.5-9.5-3.6-13.1 0z"/>
								</g>
								<g id="&lt;Group&gt;">
									<path id="&lt;Compound Path&gt;" fill-rule="evenodd" class="s0" d="m429.4 368.3c-4.4 4.3-11.5 4.3-15.9 0-4.2-4.4-4.3-11.5 0-15.8 4.4-4.3 11.5-4.3 15.9-0.1 4.3 4.4 4.3 11.5 0 15.9zm-14.5-14.5c-3.6 3.6-3.6 9.5 0 13.1 3.6 3.7 9.4 3.6 13.1 0 3.6-3.6 3.6-9.5 0-13.1-3.7-3.6-9.5-3.6-13.1 0z"/>
								</g>
								<g id="&lt;Group&gt;">
									<path id="&lt;Compound Path&gt;" fill-rule="evenodd" class="s0" d="m344.2 452.5c-4.3 4.3-11.4 4.3-15.8-0.1-4.3-4.3-4.3-11.4 0-15.7 4.3-4.3 11.5-4.3 15.8 0 4.3 4.4 4.3 11.5 0 15.8zm-14.4-14.4c-3.6 3.5-3.6 9.4 0 13 3.6 3.6 9.4 3.6 13 0 3.6-3.6 3.6-9.4 0-13-3.6-3.6-9.4-3.6-13 0z"/>
								</g>
								<g id="&lt;Group&gt;">
									<path id="&lt;Compound Path&gt;" fill-rule="evenodd" class="s0" d="m129.2 684c-7 6.9-18.2 6.9-25 0-6.9-6.8-6.9-18 0-24.9 6.8-6.9 18-6.9 25 0.1 6.8 6.8 6.8 18 0 24.8zm-22.9-22.7c-5.7 5.6-5.7 14.9 0 20.7 5.7 5.6 14.9 5.6 20.7-0.1 5.7-5.7 5.7-14.9-0.1-20.6-5.7-5.7-14.9-5.7-20.6 0z"/>
								</g>
								<g id="&lt;Group&gt;">
									<path id="&lt;Compound Path&gt;" fill-rule="evenodd" class="s0" d="m239.9 573.3c-6.9 6.9-18.1 6.9-25 0-6.8-6.9-6.8-18.1 0-25 6.9-6.8 18.1-6.8 25 0.1 6.9 6.8 6.9 18 0 24.9zm-22.8-22.8c-5.7 5.7-5.8 15 0 20.7 5.6 5.7 14.9 5.6 20.6 0 5.7-5.7 5.7-15 0-20.7-5.7-5.7-14.9-5.7-20.6 0z"/>
								</g>
								<g id="&lt;Group&gt;">
									<path id="&lt;Compound Path&gt;" fill-rule="evenodd" class="s0" d="m417.9 442c-6.9 6.8-18.1 6.8-24.9 0-6.9-6.9-6.9-18.1 0-25 6.8-6.8 18-6.8 24.9 0 6.8 6.9 6.8 18.1 0 25zm-22.8-22.8c-5.7 5.6-5.7 14.9 0 20.6 5.6 5.8 14.9 5.8 20.7 0 5.7-5.7 5.7-15 0-20.6-5.7-5.8-15-5.8-20.7 0z"/>
								</g>
								<g id="&lt;Group&gt;">
									<path id="&lt;Compound Path&gt;" fill-rule="evenodd" class="s0" d="m526.8 434.6c-6.8 7-18.1 6.9-25 0-6.8-6.8-6.8-18 0-24.9 6.9-6.9 18.2-6.8 25 0 6.9 6.9 6.9 18.1 0 24.9zm-22.8-22.8c-5.7 5.7-5.7 15 0 20.7 5.7 5.7 15.1 5.7 20.7 0 5.7-5.7 5.7-15 0-20.7-5.6-5.6-14.9-5.7-20.7 0z"/>
								</g>
							</g>
						</g>
					</g>
					<g id="&lt;Clip Group&gt;" clip-path="url(#cp13)">
					</g>
				</g>
				<g id="&lt;Group&gt;">
					<g id="&lt;Clip Group&gt;" clip-path="url(#cp14)">
					</g>
					<g id="&lt;Clip Group&gt;" clip-path="url(#cp15)">
					</g>
				</g>
			</g>
			<g id="&lt;Group&gt;">
				<g id="&lt;Group&gt;">
					<g id="&lt;Clip Group&gt;" clip-path="url(#cp16)">
					</g>
					<g id="&lt;Clip Group&gt;" clip-path="url(#cp17)">
					</g>
				</g>
				<g id="&lt;Group&gt;">
					<g id="&lt;Clip Group&gt;" clip-path="url(#cp18)">
					</g>
					<g id="&lt;Clip Group&gt;" clip-path="url(#cp19)">
					</g>
					<g id="&lt;Clip Group&gt;" clip-path="url(#cp20)">
					</g>
				</g>
				<g id="&lt;Clip Group&gt;" clip-path="url(#cp21)">
				</g>
				<g id="&lt;Group&gt;">
					<g id="&lt;Clip Group&gt;" clip-path="url(#cp22)">
					</g>
					<g id="&lt;Clip Group&gt;" clip-path="url(#cp23)">
					</g>
				</g>
			</g>
		</g>
	</g>
</svg>