<svg version="1.2" xmlns="http://www.w3.org/2000/svg" viewBox="0 0 900 900" width="900" height="900">
	<title>3922-ai</title>
	<style>
		.s0 { fill: #77bef8 } 
	</style>
	<g id="Layer 1">
		<g id="&lt;Group&gt;">
			<path id="&lt;Compound Path&gt;" fill-rule="evenodd" class="s0" d="m270.2 497.6l137.1 137.1v265.3h-2v-264.5l-137.1-137v-35.8l-59.9-59.9-24.9-25c-0.9 0.7-2 1-3.2 1-3.1 0-5.6-2.5-5.6-5.6 0-3.1 2.5-5.6 5.6-5.6 3.1 0 5.6 2.5 5.6 5.6 0 1.2-0.4 2.3-1 3.2l23.2 23.3v-27l-62.6-62.6h-34.3l-14.6 14.6c0.6 0.9 1 2 1 3.2 0 3.1-2.5 5.6-5.6 5.6-3.1 0-5.6-2.5-5.6-5.6 0-3.1 2.5-5.6 5.6-5.6 1.1 0 2.2 0.4 3.1 1l14.3-14.2-14.4-14.3c-0.9 0.6-2 1-3.1 1-3.1 0-5.6-2.5-5.6-5.6 0-3.1 2.5-5.6 5.6-5.6 3.1 0 5.6 2.5 5.6 5.6 0 1.2-0.4 2.3-1 3.2l14.7 14.7h32.3l-39.4-39.5c-0.9 0.7-2 1.1-3.2 1.1-3.1 0-5.7-2.6-5.7-5.7 0-3.1 2.6-5.6 5.7-5.6 3.1 0 5.6 2.5 5.6 5.6 0 1.2-0.4 2.3-1 3.2l50.7 50.7v-19.1l-15.4-15.4v-39.7c-2.6-0.4-4.6-2.7-4.6-5.5 0-3.1 2.5-5.6 5.6-5.6 3.1 0 5.6 2.5 5.6 5.6 0 2.8-2 5.1-4.6 5.5v38.9l15.4 15.4v21.9l18.6 18.6v-40.2c-2.6-0.5-4.6-2.7-4.6-5.5 0-3.1 2.5-5.6 5.6-5.6 3.1 0 5.6 2.5 5.6 5.6 0 2.8-2 5-4.6 5.5v42.2l31.3 31.4v29.8l17.3 17.2v-56l-21.9-21.9v-48.6l-25.2-25.2v-56.6c-2.6-0.5-4.6-2.8-4.6-5.5 0-3.1 2.5-5.6 5.6-5.6 3.1 0 5.6 2.5 5.6 5.6 0 2.7-2 5-4.6 5.5v55.8l23.2 23.1v-59c-3.2-0.5-5.7-3.2-5.7-6.5 0-3.7 3-6.6 6.7-6.6 3.6 0 6.6 2.9 6.6 6.6 0 3.3-2.5 6-5.6 6.5v81.5l17.5-17.5v-61.5l32.2-32.2c-0.6-0.9-1-2-1-3.2 0-3.1 2.5-5.6 5.6-5.6 3.1 0 5.6 2.5 5.6 5.6 0 3.1-2.5 5.6-5.6 5.6-1.2 0-2.3-0.3-3.2-1l-31.6 31.6v61.5l-19.5 19.6v25.3l20.9 20.9 14.2-14.2v-61.9c-2.6-0.5-4.6-2.8-4.6-5.6 0-3.1 2.5-5.6 5.6-5.6 3.1 0 5.6 2.5 5.6 5.6 0 2.8-2 5.1-4.6 5.6v62.7l-15.2 15.2v58l40.4 40.4 12.5-12.5v-46l-11.4-11.3v-25.6c-2.6-0.5-4.6-2.8-4.6-5.5 0-3.1 2.5-5.7 5.6-5.7 3.1 0 5.6 2.6 5.6 5.7 0 2.7-2 5-4.6 5.5v24.7l10.4 10.4 12.6-12.7v-22.4c-2.6-0.5-4.6-2.8-4.6-5.5 0-3.1 2.5-5.7 5.6-5.7 3.1 0 5.6 2.6 5.6 5.7 0 2.7-2 5-4.6 5.5v23.3l-13.6 13.6v46.8l-14 13.9zm-63.8-269c2.5 0 4.6-2.1 4.6-4.6 0-2.6-2.1-4.6-4.6-4.6-2.6 0-4.7 2-4.7 4.6 0 2.5 2.1 4.6 4.7 4.6z"/>
			<path id="&lt;Compound Path&gt;" fill-rule="evenodd" class="s0" d="m254.4 487.7l149.7 149.7v262.6h-2v-261.8l-148.5-148.5h-23.8l-21.5-21.5h-27.4l-14.5-14.5c-0.9 0.6-2 1-3.2 1-3.1 0-5.6-2.5-5.6-5.6 0-3.1 2.5-5.6 5.6-5.6 3.1 0 5.6 2.5 5.6 5.6 0 1.1-0.4 2.2-1 3.1l13.9 14h24.6l-39.2-39.2h-19.9l-19-19c-0.9 0.7-2 1-3.2 1-3.1 0-5.6-2.5-5.6-5.6 0-3.1 2.5-5.6 5.6-5.6 3.1 0 5.7 2.5 5.7 5.6 0 1.2-0.4 2.3-1 3.2l18.4 18.4h18.4v-30.8l-17.5-17.6v-10.3c-3.2-0.5-5.6-3.2-5.6-6.5 0-3.7 2.9-6.7 6.6-6.7 3.7 0 6.6 3 6.6 6.7 0 3.3-2.4 6-5.6 6.5v9.5l17.5 17.5v32.3l62.2 62.1zm-104.5-123.3c2.6 0 4.7-2.1 4.7-4.6 0-2.6-2.1-4.7-4.7-4.7-2.5 0-4.6 2.1-4.6 4.7 0 2.5 2.1 4.6 4.6 4.6z"/>
			<path id="&lt;Path&gt;" class="s0" d="m268.7 549.5l-33.8-33.8h-81.2c-0.5-2.7-2.7-4.7-5.5-4.7-3.1 0-5.6 2.5-5.6 5.7 0 3.1 2.5 5.6 5.6 5.6 2.8 0 5-2 5.5-4.6h78.4l-10.9 10.9h-94.8c-0.5-2.6-2.7-4.6-5.5-4.6-3.1 0-5.6 2.5-5.6 5.6 0 3.1 2.5 5.6 5.6 5.6 2.8 0 5-2 5.5-4.6h95.6l12.5-12.5 19.2 19.1h-110.7l-10 10c-0.9-0.6-2.1-1-3.2-1-3.2 0-5.7 2.6-5.7 5.7 0 3.1 2.5 5.6 5.7 5.6 3.1 0 5.6-2.5 5.6-5.6 0-1.2-0.4-2.3-1-3.2l9.4-9.5h111.9l12.2 12.3h41.6l89.4 89.4v259.1h2v-260l-90.6-90.5z"/>
			<path id="&lt;Path&gt;" class="s0" d="m302.8 586.7l-19.8-19.8h-64.6c-0.5-2.7-2.7-4.6-5.5-4.6-3.1 0-5.6 2.5-5.6 5.6 0 3.1 2.5 5.6 5.6 5.6 2.8 0 5-2 5.5-4.6h63.7l17.9 17.8h-109.8l-22.4-22.3c0.6-1 1-2.1 1-3.3 0-3.1-2.5-5.6-5.6-5.6-3.1 0-5.7 2.5-5.7 5.6 0 3.2 2.6 5.7 5.7 5.7 1.2 0 2.3-0.4 3.2-1l22.9 22.9h80.1l-18 18.1h-53c-0.5-2.6-2.7-4.6-5.5-4.6-3.1 0-5.6 2.5-5.6 5.6 0 3.1 2.5 5.6 5.6 5.6 2.8 0 5-2 5.5-4.6h53.8l20.1-20.1h68.5l54.9 54.8v256.5h2v-257.3l-56-56z"/>
			<path id="&lt;Compound Path&gt;" fill-rule="evenodd" class="s0" d="m371.3 622.3l23.1 23.1v254.6h-2v-253.8l-21.9-21.9h-38.7l-29.9 29.8h-32.3c-0.5 2.6-2.8 4.6-5.5 4.6-3.1 0-5.6-2.5-5.6-5.6 0-3.1 2.5-5.6 5.6-5.6 2.7 0 5 2 5.5 4.6h31.5l27.8-27.8h-89.9l-17.6 17.5h-21.1l-14.4 14.4c0.7 0.9 1 2 1 3.2 0 3.1-2.5 5.6-5.6 5.6-3.1 0-5.6-2.5-5.6-5.6 0-3.1 2.5-5.6 5.6-5.6 1.2 0 2.3 0.4 3.2 1l13-13h-40.1l-8.5 8.5c0.7 0.9 1 2 1 3.2 0 3.1-2.5 5.6-5.6 5.6-3.1 0-5.6-2.5-5.6-5.6 0-3.1 2.5-5.7 5.6-5.7 1.2 0 2.3 0.4 3.2 1.1l9.1-9.1h64l16.5-16.5-5.9-5.9h-107.4l-8.6-8.6c-1.1 0.8-2.5 1.3-3.9 1.3q-1.6 0-3.1-0.7c-1.2-0.6-2.3-1.6-2.9-2.9-1-2.2-0.9-4.6 0.4-6.6 1.8-2.8 5.4-3.8 8.6-2.4 1.3 0.6 2.3 1.6 2.9 2.9 1.1 2.3 0.9 4.7-0.3 6.6-0.1 0.2-0.2 0.3-0.3 0.4l8 8h107.5l6.9 6.9h71.7l-13.6-13.6c-0.9 0.6-2 1-3.2 1-3.1 0-5.6-2.5-5.6-5.6 0-3.1 2.5-5.6 5.6-5.6 3.1 0 5.6 2.5 5.6 5.6 0 1.2-0.4 2.2-1 3.2l15 15zm-256.1-16.3c0.8-1.4 0.9-3.1 0.2-4.7-0.4-0.9-1.1-1.6-1.9-2q-1.1-0.5-2.3-0.5c-1.5 0-3 0.8-3.9 2.2-0.8 1.3-0.9 3.1-0.2 4.7 0.4 0.8 1.1 1.5 1.9 1.9 2.3 1 4.9 0.3 6.2-1.6z"/>
			<path id="&lt;Path&gt;" class="s0" d="m622.8 511l59.9-59.9 31.4-31.5c0.9 0.7 2 1 3.2 1 3.1 0 5.7-2.5 5.7-5.6 0-3.1-2.6-5.6-5.7-5.6-3.1 0-5.6 2.5-5.6 5.6 0 1.2 0.4 2.3 1 3.2l-29.7 29.7v-43l19.1-19.2h51l5.8-5.9c0.9 0.7 2 1 3.2 1 3.1 0 5.6-2.5 5.6-5.6 0-3.1-2.5-5.6-5.6-5.6-3.1 0-5.6 2.5-5.6 5.6 0 1.2 0.4 2.3 1 3.2l-5.3 5.3h-48.1l35.7-35.7h28.3l13.2-13.2c0.9 0.6 2 1 3.2 1 3.1 0 5.6-2.5 5.6-5.6 0-3.1-2.5-5.6-5.6-5.6-3.1 0-5.6 2.5-5.6 5.6 0 1.1 0.4 2.2 1 3.1l-12.7 12.7h-25.4l37-37c0.9 0.6 2.1 1 3.2 1 3.2 0 5.7-2.5 5.7-5.6 0-3.1-2.5-5.6-5.7-5.6-3.1 0-5.6 2.5-5.6 5.6 0 1.2 0.4 2.3 1 3.2l-38.4 38.4-22.4 22.4v-22.4c2.6-0.4 4.6-2.7 4.6-5.5 0-3-2.5-5.6-5.6-5.6-3.1 0-5.6 2.6-5.6 5.6 0 2.8 2 5.1 4.6 5.5v24.4l-33.6 33.7v19.5l-17.9-17.9c0.6-0.9 1-2 1-3.2 0-3.1-2.5-5.6-5.6-5.6-3.2 0-5.7 2.5-5.7 5.6 0 3.1 2.5 5.6 5.7 5.6 1.1 0 2.2-0.3 3.2-1l19.3 19.3v23.5l-60.2 60.2v35.8l-137.1 137.1v217h2v-216.2l137.1-137.1z"/>
			<path id="&lt;Path&gt;" class="s0" d="m657.2 565.6l33.8-33.8h25.9 0.5 26.8l17 17c-0.6 0.9-1 2-1 3.2 0 3.1 2.5 5.6 5.6 5.6 3.1 0 5.6-2.5 5.6-5.6 0-3.1-2.5-5.6-5.6-5.6-1.1 0-2.2 0.4-3.1 1l-15.6-15.6h57.6l17.8-17.9c0.9 0.7 2 1 3.2 1 3.1 0 5.6-2.5 5.6-5.6 0-3.1-2.5-5.6-5.6-5.6-3.1 0-5.6 2.5-5.6 5.6 0 1.2 0.4 2.3 1 3.2l-17.3 17.3h-58.7-0.5-25.2l14.4-14.4h44c0.5 2.6 2.8 4.6 5.5 4.6 3.1 0 5.6-2.5 5.6-5.6 0-3.1-2.5-5.6-5.6-5.6-2.7 0-5 2-5.5 4.6h-44.9l-16.4 16.4h-26.3l-33.8 33.8h-41.6l-124.7 124.7v211.7h2v-210.9l123.5-123.5z"/>
			<path id="&lt;Compound Path&gt;" fill-rule="evenodd" class="s0" d="m592 595.1l-96.7 96.7v208.2h-2v-209l97.9-97.9h71.5l26.6-26.5h107.2l18.6-18.6c-0.8-1.1-1.3-2.5-1.3-3.9 0-3.7 3-6.7 6.6-6.7 3.7 0 6.6 3 6.6 6.7 0 3.6-2.9 6.6-6.6 6.6-1.5 0-2.8-0.5-3.9-1.3l-18.2 18.2 16.1 16.1c0.9-0.7 2-1 3.2-1 3.1 0 5.6 2.5 5.6 5.6 0 3.1-2.5 5.6-5.6 5.6-3.1 0-5.6-2.5-5.6-5.6 0-1.2 0.4-2.3 1-3.2l-16.5-16.5h-104.4l17.2 17.1h38.4c0.5-2.6 2.8-4.6 5.5-4.6 3.2 0 5.7 2.5 5.7 5.6 0 3.1-2.5 5.7-5.7 5.7-2.7 0-5-2-5.5-4.7h-39.3l-18.7-18.7-26.2 26.1zm223.8-51c0 2.5 2.1 4.6 4.6 4.6 2.6 0 4.7-2.1 4.7-4.6 0-2.6-2.1-4.7-4.7-4.7-2.5 0-4.6 2.1-4.6 4.7z"/>
			<path id="&lt;Compound Path&gt;" fill-rule="evenodd" class="s0" d="m388.1 470.1l37.9 37.9v392h-2v-391.2l-37.9-37.8v-76.5l-17.8-17.8v-64l-15.2-15.2v-119c-2.6-0.5-4.6-2.8-4.6-5.5 0-3.2 2.5-5.7 5.6-5.7 3.1 0 5.6 2.5 5.6 5.7 0 2.7-2 5-4.6 5.5v41.2l16.5-16.5v-58c-2.6-0.5-4.6-2.8-4.6-5.5 0-3.1 2.5-5.6 5.6-5.6 3.1 0 5.6 2.5 5.6 5.6 0 2.7-2 5-4.6 5.5v58.9l-18.5 18.4v74.2l13.2 13.2v-50c-3.2-0.4-5.6-3.2-5.6-6.5 0-3.6 3-6.6 6.6-6.6 3.7 0 6.6 3 6.6 6.6 0 3.3-2.4 6.1-5.6 6.5v114l12.1-12.1v-26c-2.6-0.5-4.6-2.8-4.6-5.5 0-3.1 2.5-5.7 5.6-5.7 3.1 0 5.6 2.6 5.6 5.7 0 2.7-2 5-4.6 5.5v26.8l-13.7 13.7 17.4 17.4zm-18.8-212.1c2.6 0 4.6-2.1 4.6-4.6 0-2.6-2-4.7-4.6-4.7-2.5 0-4.6 2.1-4.6 4.7 0 2.5 2.1 4.6 4.6 4.6z"/>
			<path id="&lt;Compound Path&gt;" fill-rule="evenodd" class="s0" d="m415.8 475.8l13.4 13.4v410.8h-2v-410l-13.4-13.3v-84.9l-10.7-10.7v-85.3l-14.6-14.5v-64l-0.2-0.1 0.2-0.2v-95.2l-16.9-16.9c-0.9 0.6-2 1-3.2 1-3.1 0-5.6-2.5-5.6-5.6 0-3.1 2.5-5.6 5.6-5.6 3.1 0 5.6 2.5 5.6 5.6 0 1.2-0.4 2.3-1 3.2l17.5 17.5v45.1l16.6-16.6v-67.9c-2.6-0.5-4.6-2.8-4.6-5.5 0-3.1 2.5-5.6 5.6-5.6 3.1 0 5.6 2.5 5.6 5.6 0 2.7-1.9 5-4.6 5.5v68.7l-18.6 18.6v46.1l31.9-31.9c-0.6-0.9-1-2-1-3.2 0-3.1 2.5-5.6 5.6-5.6 3.1 0 5.6 2.5 5.6 5.6 0 3.1-2.5 5.6-5.6 5.6-1.2 0-2.3-0.4-3.2-1l-33.3 33.3v62.6l13.6 13.6 8.5-8.6v-33.9l35.4-35.4c-0.8-1.1-1.3-2.4-1.3-3.9 0-3.6 3-6.6 6.7-6.6 3.6 0 6.6 3 6.6 6.6 0 3.7-3 6.7-6.6 6.7-1.5 0-2.9-0.5-4-1.3l-34.8 34.8v33.9l-9.5 9.5v84.5l9.7 9.7 30.6-30.6v-30.6l-14.5-14.6v-32c-2.6-0.5-4.6-2.8-4.6-5.6 0-3.1 2.5-5.6 5.6-5.6 3.1 0 5.6 2.5 5.6 5.6 0 2.8-2 5.1-4.6 5.6v31.2l14.5 14.6v32.2l-31.6 31.6zm32.9-263.6c0 2.6 2.1 4.7 4.7 4.7 2.5 0 4.6-2.1 4.6-4.7 0-2.5-2.1-4.6-4.6-4.6-2.6 0-4.7 2.1-4.7 4.6z"/>
			<path id="&lt;Path&gt;" class="s0" d="m446.1 519.5l7.5-7.5c1 0.6 2.1 1 3.2 1 3.2 0 5.7-2.5 5.7-5.6 0-3.2-2.5-5.7-5.7-5.7-3.1 0-5.6 2.5-5.6 5.7 0 1.2 0.4 2.3 1 3.2l-6.1 6.1v-32.8-2l13.8-13.7v-61.6l-14.6-14.6c0.7-0.9 1-2 1-3.2 0-3.1-2.5-5.7-5.6-5.7-3.1 0-5.6 2.6-5.6 5.7 0 3.1 2.5 5.6 5.6 5.6 1.2 0 2.3-0.4 3.2-1l14 14v59.9l-11.8 11.8v-46.8l-15.8-15.8c0.6-0.9 1-2 1-3.2 0-3.1-2.5-5.6-5.6-5.6-3.1 0-5.7 2.5-5.7 5.6 0 3.1 2.6 5.6 5.7 5.6 1.2 0 2.3-0.3 3.2-1l15.2 15.3v45.9l-16.2-16.2c0.7-0.9 1.1-2 1.1-3.2 0-3.1-2.6-5.6-5.7-5.6-3.1 0-5.6 2.5-5.6 5.6 0 3.1 2.5 5.7 5.6 5.7 1.2 0 2.3-0.4 3.2-1.1l17.6 17.6v71.4l-13.7 13.7v333h2v-332.2l13.7-13.7z"/>
			<path id="&lt;Path&gt;" class="s0" d="m448.2 576.4l13.8-13.9v-36.2l15.2-15.1v-106.5l11.4-11.4v-30.4l19.3-19.3v-83.7l-12.6-12.6v-11.8c2.6-0.4 4.6-2.7 4.6-5.5 0-3.1-2.5-5.6-5.6-5.6-3.1 0-5.7 2.5-5.7 5.6 0 2.8 2 5.1 4.7 5.5v12.6l12.6 12.6v82.1l-17.3 17.3v-14.2l-19.2-19.2v-4.5l16.2-16.2v-30.1c2.6-0.5 4.6-2.8 4.6-5.5 0-3.2-2.5-5.7-5.6-5.7-3.1 0-5.6 2.5-5.6 5.7 0 2.7 2 5 4.6 5.5v29.3l-14.2 14.2v-82.9c2.6-0.5 4.6-2.8 4.6-5.5 0-3.1-2.5-5.7-5.6-5.7-3.1 0-5.6 2.6-5.6 5.7 0 2.7 2 5 4.6 5.5v91.1l19.2 19.2v45.7l-11.4 11.4v106.4l-15.2 15.2v36.2l-13.8 13.8v24.6l-12.6 12.5v287.4h2v-286.6l12.6-12.5z"/>
			<path id="&lt;Compound Path&gt;" fill-rule="evenodd" class="s0" d="m486.4 656.6l-21.5 21.5v221.9h-2v-222.7l21.5-21.5v-44.5l24.1-24.1v-90.6l23.4-23.4v-168.8l-16-16v-94.4c-2.6-0.4-4.6-2.7-4.6-5.5 0-3.1 2.5-5.6 5.6-5.6 3.2 0 5.7 2.5 5.7 5.6 0 2.8-2 5.1-4.7 5.5v93.6l15 15 12.3-12.3v-31.9c-3.2-0.5-5.7-3.2-5.7-6.6 0-3.6 3-6.6 6.7-6.6 3.6 0 6.6 3 6.6 6.6 0 3.4-2.4 6.1-5.6 6.6v32.7l-13.3 13.3v75.9l12.9-12.9v-37.8l27.9-27.9v-62l-27.2-27.3v-49l-23.7-23.7v-25.6c-2.6-0.5-4.5-2.8-4.5-5.5 0-3.1 2.5-5.6 5.5-5.6 3.1 0 5.6 2.5 5.6 5.6 0 2.7-1.9 5-4.6 5.5v24.8l21.7 21.7v-64.8c-2.6-0.5-4.6-2.8-4.6-5.5 0-3.1 2.5-5.6 5.6-5.6 3.1 0 5.6 2.5 5.6 5.6 0 2.7-2 5-4.6 5.5v115.8l25.2 25.2v-53l19.9-19.9c-0.6-0.9-1-2-1-3.2 0-3.1 2.5-5.6 5.6-5.6 3.1 0 5.6 2.5 5.6 5.6 0 3.1-2.5 5.6-5.6 5.6-1.2 0-2.3-0.4-3.2-1l-19.3 19.3v117.9l-27.9 27.9v37.8l-14.9 14.9v90.9l-23.4 23.4v90.6l-24.1 24.2zm59.8-400.2c2.5 0 4.6-2.1 4.6-4.6 0-2.6-2.1-4.6-4.6-4.6-2.6 0-4.7 2-4.7 4.6 0 2.5 2.1 4.6 4.7 4.6z"/>
			<path id="&lt;Path&gt;" class="s0" d="m528.5 546.3l29.3-29.3v-55l15.6-15.6v-19.6c2.6-0.4 4.6-2.7 4.6-5.5 0-3.1-2.5-5.6-5.6-5.6-3.1 0-5.6 2.5-5.6 5.6 0 2.8 2 5.1 4.6 5.5v18.8l-13.6 13.6v-44.1l25.9-25.9v-23.3c2.6-0.5 4.6-2.8 4.6-5.5 0-3.1-2.5-5.7-5.6-5.7-3.1 0-5.6 2.6-5.6 5.7 0 2.7 2 5 4.6 5.5v20.5l-16-16.1v-30.3c2.6-0.5 4.6-2.8 4.6-5.6 0-3.1-2.5-5.6-5.6-5.6-3.2 0-5.7 2.5-5.7 5.6 0 2.8 2 5.1 4.7 5.6v31.2l17.6 17.6-25.5 25.5v101.9l-29.3 29.3v74l-60.4 60.4v220.1h2v-219.2l60.4-60.5z"/>
			<path id="&lt;Path&gt;" class="s0" d="m551.6 574.6l27.3-27.2v-44.5l29.1-29.1v-129.9l24.4-24.4v-40.6l13.5-13.4v-110.8c2.6-0.5 4.6-2.8 4.6-5.6 0-3.1-2.5-5.6-5.6-5.6-3.2 0-5.7 2.5-5.7 5.6 0 2.8 2 5.1 4.7 5.6v67.3l-33.2-33.2c0.6-0.9 1-2 1-3.2 0-3.1-2.5-5.6-5.6-5.6-3.1 0-5.6 2.5-5.6 5.6 0 3.1 2.5 5.6 5.6 5.6 1.2 0 2.3-0.3 3.2-1l34.6 34.6v39.9l-12.5 12.4-27.7-27.8c0.6-0.9 1-2 1-3.2 0-3.1-2.5-5.6-5.7-5.6-3.1 0-5.6 2.5-5.6 5.6 0 3.1 2.5 5.7 5.6 5.7 1.2 0 2.3-0.4 3.2-1l28.2 28.1v39.8l-23.4 23.4-14.9-14.9v-28.9c2.6-0.5 4.6-2.8 4.6-5.6 0-3.1-2.5-5.6-5.6-5.6-3.1 0-5.6 2.5-5.6 5.6 0 2.8 2 5.1 4.6 5.6v29.7l15.9 15.9v129l-29.1 29.2v44.4l-27.3 27.3v28.5l-80.3 80.3v217.4h2v-216.6l80.3-80.3z"/>
			<path id="&lt;Compound Path&gt;" fill-rule="evenodd" class="s0" d="m590.2 570.4l-115.7 115.7v213.9h-2v-214.7l115.7-115.7v-50.7l50.4-50.4v-24.6l-18.4-18.5v-37.4c-3.2-0.5-5.6-3.2-5.6-6.5 0-3.7 2.9-6.6 6.6-6.6 3.7 0 6.6 2.9 6.6 6.6 0 3.3-2.4 6-5.6 6.5v36.6l16.4 16.4v-74.4l17.8-17.8v-156.2l10.8-10.8c-0.6-0.9-1-2.1-1-3.2 0-3.2 2.5-5.7 5.6-5.7 3.1 0 5.7 2.5 5.7 5.7 0 3.1-2.6 5.6-5.7 5.6-1.2 0-2.3-0.4-3.2-1l-10.2 10.2v156.2l-17.8 17.8v24.8l48.7-48.7-17.1-17.1v-44.9c-2.6-0.5-4.6-2.8-4.6-5.5 0-3.1 2.5-5.6 5.6-5.6 3.1 0 5.6 2.5 5.6 5.6 0 2.7-2 5-4.6 5.5v44l16.6 16.6 21.8-21.8v-43.4c-2.7-0.5-4.6-2.8-4.6-5.5 0-3.1 2.5-5.6 5.6-5.6 3 0 5.6 2.5 5.6 5.6 0 2.7-2 5-4.6 5.5v41.4l27.1-27.2v-54.4c-2.6-0.5-4.6-2.8-4.6-5.6 0-3.1 2.5-5.6 5.6-5.6 3.1 0 5.7 2.5 5.7 5.6 0 2.8-2 5.1-4.7 5.6v52.4l15.3-15.3c-0.8-1.1-1.3-2.4-1.3-3.9 0-3.6 3-6.6 6.6-6.6 3.6 0 6.6 3 6.6 6.6 0 3.7-3 6.6-6.6 6.6-1.5 0-2.8-0.4-3.9-1.2l-16.7 16.6-0.2 0.3h-0.1l-102.8 102.9v74.2l-50.4 50.4zm169.5-300.5c0 2.6 2.1 4.6 4.6 4.6 2.5 0 4.6-2 4.6-4.6 0-2.5-2.1-4.6-4.6-4.6-2.5 0-4.6 2.1-4.6 4.6zm-138.5 116.2c2.6 0 4.6-2.1 4.6-4.6 0-2.6-2-4.6-4.6-4.6-2.6 0-4.6 2-4.6 4.6 0 2.5 2 4.6 4.6 4.6z"/>
			<path id="&lt;Compound Path&gt;" fill-rule="evenodd" class="s0" d="m461.5 649l-13 13v238h-2v-238.8l13-13v-70.1l25.2-25.1v-80l26.2-26.2-15.4-15.4v-20c-3.2-0.5-5.6-3.3-5.6-6.6 0-3.6 2.9-6.6 6.6-6.6 3.7 0 6.6 3 6.6 6.6 0 3.3-2.4 6.1-5.6 6.6v19.2l13.8 13.8v-68.1c-2.7-0.4-4.7-2.7-4.7-5.5 0-3.1 2.6-5.6 5.7-5.6 3.1 0 5.6 2.5 5.6 5.6 0 2.8-2 5.1-4.6 5.5v70.9l-26.6 26.6v80l-25.2 25.2zm35-239.6c2.5 0 4.6-2.1 4.6-4.6 0-2.6-2.1-4.7-4.6-4.7-2.6 0-4.6 2.1-4.6 4.7 0 2.5 2 4.6 4.6 4.6z"/>
			<path id="&lt;Path&gt;" class="s0" d="m464.7 611.9l36.1-36v-93.9l20.1-20.2v-41.7c2.7-0.4 4.7-2.7 4.7-5.5 0-3.1-2.5-5.6-5.7-5.6-3.1 0-5.6 2.5-5.6 5.6 0 2.8 2 5.1 4.6 5.5v40.9l-20.1 20.2v93.8l-36.1 36.1v39.8l-13 13v236.1h2v-235.3l13-13z"/>
			<path id="&lt;Compound Path&gt;" fill-rule="evenodd" class="s0" d="m393 545.2l29.7 29.8v325h-2v-324.2l-99.2-99.2v-126.1l-37.8-37.8v-40.4c-3.2-0.5-5.6-3.2-5.6-6.5 0-3.7 2.9-6.6 6.6-6.6 3.7 0 6.6 2.9 6.6 6.6 0 3.3-2.4 6-5.6 6.5v37.6l19.5-19.5v-36.4c-2.6-0.5-4.6-2.8-4.6-5.6 0-3.1 2.5-5.6 5.6-5.6 3.1 0 5.6 2.5 5.6 5.6 0 2.8-2 5.1-4.6 5.6v37.2l-21.1 21.1 36.4 36.4 6.3-6.2v-134.7c-2.7-0.5-4.7-2.7-4.7-5.5 0-3.1 2.5-5.6 5.7-5.6 3.1 0 5.6 2.5 5.6 5.6 0 2.8-2 5-4.6 5.5v135.5l-7.3 7.2v125.3l14 13.9v-20.6l6.8-6.8v-5.3c-2.7-0.4-4.7-2.7-4.7-5.5 0-3.1 2.6-5.6 5.7-5.6 3.1 0 5.6 2.5 5.6 5.6 0 2.8-2 5.1-4.6 5.5v6.1l-6.8 6.8v21.8l25.1 25.2v-65l-20.4-20.4v-35.9l-9.3-9.3c-0.9 0.6-2 1-3.2 1-3.1 0-5.6-2.5-5.6-5.6 0-3.1 2.5-5.7 5.6-5.7 3.1 0 5.7 2.6 5.7 5.7 0 1.2-0.4 2.3-1 3.2l7.8 7.9v-58.8c-2.6-0.4-4.6-2.7-4.6-5.5 0-3.1 2.6-5.6 5.7-5.6 3.1 0 5.6 2.5 5.6 5.6 0 2.8-2 5.1-4.7 5.6v96.6l20.4 20.4v67.8l24.4 24.3v-23.5l-18.7-18.6v-34c-2.6-0.5-4.6-2.8-4.6-5.5 0-3.2 2.5-5.7 5.6-5.7 3.1 0 5.7 2.5 5.7 5.7 0 2.7-2 5-4.7 5.5v33.1l16.7 16.7v-19.2c-2.7-0.5-4.7-2.8-4.7-5.6 0-3.1 2.6-5.6 5.7-5.6 3.1 0 5.6 2.5 5.6 5.6 0 2.8-2 5.1-4.6 5.6zm-108.3-274.8c2.6 0 4.6-2.1 4.6-4.6 0-2.6-2-4.7-4.6-4.7-2.6 0-4.6 2.1-4.6 4.7 0 2.5 2 4.6 4.6 4.6z"/>
			<path id="&lt;Compound Path&gt;" fill-rule="evenodd" class="s0" d="m297.2 493.2l117.5 117.5v289.3h-2v-288.4l-118-118v-72.7l18.1-18.1v-36.9c-2.6-0.5-4.6-2.8-4.6-5.5 0-3.1 2.5-5.7 5.6-5.7 3.1 0 5.6 2.6 5.6 5.7 0 2.7-2 5-4.6 5.5v37.8l-18.1 18v69.1l9.1-9.1v-33.7c-3.2-0.5-5.6-3.2-5.6-6.6 0-3.6 2.9-6.6 6.6-6.6 3.6 0 6.6 3 6.6 6.6 0 3.4-2.4 6.1-5.6 6.6v34.6zm9.6-47.2c2.6 0 4.7-2 4.7-4.6 0-2.6-2.1-4.6-4.7-4.6-2.5 0-4.6 2-4.6 4.6 0 2.6 2.1 4.6 4.6 4.6z"/>
			<path id="&lt;Compound Path&gt;" fill-rule="evenodd" class="s0" d="m837.1 446.2c0 3.1-2.6 5.6-5.7 5.6-1.2 0-2.3-0.3-3.2-1l-46.2 46.2h-79.9l-40.9 41h-23.8l-148.5 148.5v213.5h-2v-214.3l149.7-149.7h23.2v-32.6l23.4-23.5v-12.8c-2.6-0.5-4.6-2.8-4.6-5.5 0-3.1 2.5-5.7 5.6-5.7 3.1 0 5.7 2.6 5.7 5.7 0 2.7-2 5-4.7 5.5v13.6l-23.4 23.5v30.4l38.9-39v-22.6l79.4-79.4c-1.4-2.2-1.6-4.7-0.6-6.9 1.2-2.3 3.4-3.7 6-3.7 1.6 0 3.2 0.6 4.7 1.7l0.2 0.2c1.8 2.4 2.2 5.3 1 7.7-1.1 2.3-3.4 3.7-5.9 3.7-1.4 0-2.7-0.5-4-1.2l-20.2 20.2h38.1l22.3-22.3c-0.6-0.9-1-2-1-3.2 0-3.1 2.5-5.6 5.6-5.6 3.1 0 5.6 2.5 5.6 5.6 0 3.1-2.5 5.6-5.6 5.6-1.1 0-2.2-0.4-3.1-1l-22.9 22.9h-41l-56.6 56.5v21.2h31.1l25.3-25.2v-18.1c-2.6-0.5-4.6-2.7-4.6-5.5 0-3.1 2.5-5.6 5.6-5.6 3.1 0 5.6 2.5 5.6 5.6 0 2.8-2 5-4.6 5.5v18.9l-24.4 24.4h44.5l23.3-23.3v-31.4c-2.6-0.4-4.6-2.7-4.6-5.5 0-3.1 2.5-5.6 5.6-5.6 3.1 0 5.6 2.5 5.6 5.6 0 2.8-2 5.1-4.6 5.5v29.4l20.3-20.3c-0.6-0.9-1-2-1-3.2 0-3.1 2.5-5.6 5.6-5.6 3.1 0 5.7 2.5 5.7 5.6zm-55-53.1c2.7 2 6.2 1.2 7.5-1.4 0.9-1.7 0.6-3.7-0.7-5.5-2.8-2-6.3-1.2-7.6 1.4-0.8 1.7-0.5 3.7 0.8 5.5z"/>
			<path id="&lt;Compound Path&gt;" fill-rule="evenodd" class="s0" d="m423.4 314.7c0 1.2-0.4 2.3-1 3.2l11.2 11.3v28.1l-6.7 6.7c0.8 1.1 1.3 2.4 1.3 3.9 0 3.7-2.9 6.6-6.6 6.6-3.7 0-6.6-2.9-6.6-6.6 0-3.7 2.9-6.6 6.6-6.6 1.5 0 2.8 0.5 3.9 1.3l6.1-6.1v-26.5l-10.7-10.7c-0.9 0.7-2 1.1-3.2 1.1-3.1 0-5.6-2.6-5.6-5.7 0-3.1 2.5-5.6 5.6-5.6 3.2 0 5.7 2.5 5.7 5.6zm2.8 53.2c0-2.6-2-4.6-4.6-4.6-2.6 0-4.6 2-4.6 4.6 0 2.6 2 4.6 4.6 4.6 2.6 0 4.6-2 4.6-4.6z"/>
			<path id="&lt;Path&gt;" class="s0" d="m461.5 308.8c0-3.1-2.5-5.6-5.6-5.6-3.1 0-5.6 2.5-5.6 5.6 0 2.8 2 5.1 4.6 5.5v39.1l9.6 9.5v16.8c-2.7 0.4-4.7 2.7-4.7 5.5 0 3.1 2.6 5.6 5.7 5.6 3.1 0 5.6-2.5 5.6-5.6 0-2.8-2-5.1-4.6-5.5v-17.6l-9.6-9.6v-38.2c2.6-0.4 4.6-2.7 4.6-5.5z"/>
			<path id="&lt;Path&gt;" class="s0" d="m356.7 381c-3.1 0-5.6 2.5-5.6 5.6 0 3.1 2.5 5.6 5.6 5.6 1.2 0 2.3-0.3 3.2-1l8.4 8.4v25.6c-2.6 0.5-4.6 2.8-4.6 5.6 0 3.1 2.5 5.6 5.6 5.6 3.1 0 5.6-2.5 5.6-5.6 0-2.8-2-5.1-4.6-5.6v-26.4l-9-9c0.7-0.9 1.1-2 1.1-3.2 0-3.1-2.6-5.6-5.7-5.6z"/>
			<path id="&lt;Compound Path&gt;" fill-rule="evenodd" class="s0" d="m331.3 503.4c0 1.2-0.3 2.3-1 3.2l54.9 54.9c1.1-0.8 2.5-1.3 4-1.3 3.6 0 6.6 3 6.6 6.6 0 3.7-3 6.7-6.6 6.7-3.7 0-6.7-3-6.7-6.7 0-1.4 0.5-2.8 1.3-3.9l-54.9-54.9c-0.9 0.6-2 1-3.2 1-3.1 0-5.6-2.5-5.6-5.6 0-3.1 2.5-5.6 5.6-5.6 3.1 0 5.6 2.5 5.6 5.6zm53.2 63.4c0 2.6 2.1 4.7 4.7 4.7 2.5 0 4.6-2.1 4.6-4.7 0-2.5-2.1-4.6-4.6-4.6-2.6 0-4.7 2.1-4.7 4.6z"/>
			<path id="&lt;Path&gt;" class="s0" d="m211.2 420c0-3.1-2.5-5.7-5.6-5.7-3.2 0-5.7 2.6-5.7 5.7 0 2.7 2 5 4.7 5.5v17.1l28.8 28.9c-0.6 0.9-1 2-1 3.2 0 3.1 2.6 5.7 5.7 5.7 3.1 0 5.6-2.6 5.6-5.7 0-3.1-2.5-5.6-5.6-5.6-1.2 0-2.3 0.4-3.2 1l-28.3-28.3v-16.3c2.6-0.5 4.6-2.8 4.6-5.5z"/>
			<path id="&lt;Path&gt;" class="s0" d="m275.7 337.5c3.1 0 5.6-2.5 5.6-5.6 0-3.2-2.5-5.7-5.6-5.7-1.2 0-2.3 0.4-3.2 1l-7.3-7.3v-40.2c2.6-0.5 4.6-2.8 4.6-5.5 0-3.1-2.5-5.7-5.6-5.7-3.1 0-5.6 2.6-5.6 5.7 0 2.7 2 5 4.6 5.5v41.1l7.9 7.9c-0.7 0.9-1 2-1 3.2 0 3.1 2.5 5.6 5.6 5.6z"/>
			<path id="&lt;Compound Path&gt;" fill-rule="evenodd" class="s0" d="m260.6 425.7c0-1.1 0.3-2.2 1-3.2l-16.6-16.5v-30.8c-3.2-0.5-5.7-3.2-5.7-6.5 0-3.7 3-6.6 6.7-6.6 3.6 0 6.6 2.9 6.6 6.6 0 3.3-2.4 6-5.6 6.5v29.9l16 16c0.9-0.6 2-1 3.2-1 3.1 0 5.6 2.5 5.6 5.6 0 3.2-2.5 5.7-5.6 5.7-3.1 0-5.6-2.5-5.6-5.7zm-14.6-52.4c2.5 0 4.6-2 4.6-4.6 0-2.6-2.1-4.6-4.6-4.6-2.6 0-4.7 2-4.7 4.6 0 2.6 2.1 4.6 4.7 4.6z"/>
			<path id="&lt;Compound Path&gt;" fill-rule="evenodd" class="s0" d="m588.4 464.8l-12.8 12.8c0.8 1.1 1.3 2.5 1.3 3.9 0 3.7-3 6.7-6.6 6.7-3.7 0-6.6-3-6.6-6.7 0-3.6 2.9-6.6 6.6-6.6 1.5 0 2.8 0.5 3.9 1.3l12.2-12.2v-50.8c-2.6-0.5-4.6-2.8-4.6-5.5 0-3.1 2.5-5.7 5.6-5.7 3.1 0 5.6 2.6 5.6 5.7 0 2.7-2 5-4.6 5.5zm-13.5 16.7c0-2.6-2.1-4.6-4.6-4.6-2.6 0-4.6 2-4.6 4.6 0 2.6 2 4.6 4.6 4.6 2.5 0 4.6-2 4.6-4.6z"/>
			<path id="&lt;Compound Path&gt;" fill-rule="evenodd" class="s0" d="m683.2 202.3c0-3.7 3-6.7 6.7-6.7 3.6 0 6.6 3 6.6 6.7 0 3.3-2.5 6-5.6 6.5v60.5l18.3-18.3v-15c-2.6-0.5-4.6-2.8-4.6-5.5 0-3.2 2.5-5.7 5.6-5.7 3.1 0 5.7 2.5 5.7 5.7 0 2.7-2 5-4.7 5.5v15.8l-22.3 22.3v-65.3c-3.2-0.5-5.7-3.2-5.7-6.5zm2 0c0 2.5 2.1 4.6 4.7 4.6 2.5 0 4.6-2.1 4.6-4.6 0-2.6-2.1-4.7-4.6-4.7-2.6 0-4.7 2.1-4.7 4.7z"/>
			<path id="&lt;Path&gt;" class="s0" d="m543.3 499.7c3.1 0 5.6-2.5 5.6-5.7 0-3.1-2.5-5.6-5.6-5.6-3.1 0-5.6 2.5-5.6 5.6 0 1.2 0.3 2.3 1 3.2l-15.5 15.6c-1-0.7-2.1-1-3.3-1-3.1 0-5.6 2.5-5.6 5.6 0 3.1 2.5 5.6 5.6 5.6 3.2 0 5.7-2.5 5.7-5.6 0-1.2-0.4-2.3-1-3.2l15.5-15.5c0.9 0.6 2 1 3.2 1z"/>
			<path id="&lt;Path&gt;" class="s0" d="m573.1 110.6v39.7l24.3-24.3c0.9 0.7 2 1 3.2 1 3.1 0 5.6-2.5 5.6-5.6 0-3.1-2.5-5.6-5.6-5.6-3.1 0-5.7 2.5-5.7 5.6 0 1.2 0.4 2.3 1.1 3.2l-20.9 20.9v-34.9c2.6-0.5 4.6-2.8 4.6-5.6 0-3.1-2.5-5.6-5.6-5.6-3.1 0-5.6 2.5-5.6 5.6 0 2.8 2 5.1 4.6 5.6z"/>
			<path id="&lt;Path&gt;" class="s0" d="m411.9 103c0 2.7 2 5 4.7 5.5v25.3l15.6 15.7 23.2-23.2 0.1-0.1 0.2-0.2 26.2-26.2v-39.3c2.6-0.5 4.6-2.8 4.6-5.5 0-3.1-2.5-5.6-5.6-5.6-3.1 0-5.6 2.5-5.6 5.6 0 2.7 2 5 4.6 5.5v38.5l-24.2 24.2v-44.5c2.6-0.5 4.6-2.8 4.6-5.6 0-3.1-2.5-5.6-5.6-5.6-3.2 0-5.7 2.5-5.7 5.6 0 2.8 2 5.1 4.7 5.6v46.5l-21.5 21.4-13.6-13.6v-24.5c2.6-0.5 4.6-2.8 4.6-5.5 0-3.2-2.5-5.7-5.6-5.7-3.1 0-5.7 2.5-5.7 5.7z"/>
			<path id="&lt;Compound Path&gt;" fill-rule="evenodd" class="s0" d="m316.2 176.5c0-3.3 2.5-6 5.6-6.5v-19l24.3-24.3c-0.6-0.9-1-2-1-3.2 0-3.1 2.5-5.6 5.6-5.6 3.1 0 5.7 2.5 5.7 5.6 0 3.1-2.6 5.7-5.7 5.7-1.2 0-2.3-0.4-3.2-1l-23.7 23.6v18.2c3.2 0.5 5.7 3.2 5.7 6.5 0 3.7-3 6.7-6.7 6.7-3.6 0-6.6-3-6.6-6.7zm2 0c0 2.6 2.1 4.7 4.6 4.7 2.6 0 4.7-2.1 4.7-4.7 0-2.5-2.1-4.6-4.7-4.6-2.5 0-4.6 2.1-4.6 4.6z"/>
			<path id="&lt;Path&gt;" class="s0" d="m499.1 128.4v50.6l-21.6 21.6v-57c2.6-0.4 4.6-2.7 4.6-5.5 0-3.1-2.5-5.6-5.6-5.6-3.1 0-5.6 2.5-5.6 5.6 0 2.8 2 5.1 4.6 5.5v57l-21.1-21.1v-21.3c2.6-0.5 4.6-2.7 4.6-5.5 0-3.1-2.6-5.6-5.6-5.6-3.1 0-5.6 2.5-5.6 5.6 0 2.8 1.9 5 4.6 5.5v22.1l24.1 24.2 24.6-24.6v-51.5c2.6-0.5 4.6-2.8 4.6-5.5 0-3.1-2.5-5.6-5.6-5.6-3.1 0-5.6 2.5-5.6 5.6 0 2.7 2 5 4.6 5.5z"/>
			<path id="&lt;Path&gt;" class="s0" d="m298.3 158.2v52.3l-35.6 35.6v-8c2.6-0.4 4.6-2.7 4.6-5.5 0-3.1-2.5-5.6-5.6-5.6-3.1 0-5.6 2.5-5.6 5.6 0 2.8 2 5.1 4.6 5.5v12.8l39.6-39.6v-53.1c2.6-0.5 4.6-2.7 4.6-5.5 0-3.1-2.5-5.6-5.6-5.6-3.1 0-5.6 2.5-5.6 5.6 0 2.8 2 5 4.6 5.5z"/>
			<path id="&lt;Compound Path&gt;" fill-rule="evenodd" class="s0" d="m105.5 496.9c0 3.1-2.5 5.6-5.6 5.6-3.1 0-5.6-2.5-5.6-5.6 0-3.1 2.5-5.6 5.6-5.6 1.2 0 2.3 0.4 3.2 1l24.1-24.1h-17l-20-20.1c-0.9 0.6-2 1-3.2 1-3.1 0-5.6-2.5-5.6-5.6 0-3.1 2.5-5.6 5.6-5.6 3.1 0 5.6 2.5 5.6 5.6 0 1.2-0.4 2.3-1 3.2l19.5 19.5h38.1l-55-55.1c-1.1 0.8-2.5 1.3-3.9 1.3-3.7 0-6.7-2.9-6.7-6.6 0-3.7 3-6.6 6.7-6.6 3.6 0 6.6 2.9 6.6 6.6 0 1.5-0.5 2.8-1.3 3.9l94.1 94.1h59.1l19.1 19.1c1.1-0.8 2.4-1.3 3.9-1.3 3.7 0 6.6 2.9 6.6 6.6 0 3.7-2.9 6.6-6.6 6.6-3.6 0-6.6-2.9-6.6-6.6 0-1.5 0.5-2.8 1.3-3.9l-18.5-18.5h-59.1l-37.7-37.6h-21.2l-25.5 25.5c0.6 0.9 1 2 1 3.2zm161.7 31.3c0 2.6 2.1 4.6 4.6 4.6 2.6 0 4.6-2 4.6-4.6 0-2.6-2-4.6-4.6-4.6-2.5 0-4.6 2-4.6 4.6zm-172.3-122.4c0-2.6-2.1-4.6-4.6-4.6-2.6 0-4.7 2-4.7 4.6 0 2.6 2.1 4.6 4.7 4.6 2.5 0 4.6-2 4.6-4.6z"/>
			<path id="&lt;Compound Path&gt;" fill-rule="evenodd" class="s0" d="m832.9 633.2c0 3.1-2.5 5.6-5.6 5.6-2.8 0-5.1-2-5.5-4.6h-32.8l-18.6-18.6h-60.6l-5.9 5.9 16 16h42.5l10.9 10.9c0.9-0.6 2-1 3.2-1 3.1 0 5.6 2.5 5.6 5.6 0 3.2-2.5 5.7-5.6 5.7-3.1 0-5.6-2.5-5.6-5.7 0-1.2 0.4-2.3 1-3.2l-10.4-10.3h-42.4l-17-17h-75.4l21.2 21.2h34.5l19.3 19.3c0.9-0.7 2-1 3.1-1 3.1 0 5.6 2.5 5.6 5.6 0 3.1-2.5 5.6-5.6 5.6-3.1 0-5.6-2.5-5.6-5.6 0-1.2 0.4-2.3 1-3.2l-18.7-18.7h-34.5l-23.1-23.2h-53.4l-71.9 72v205.5h-2v-206.3l73.1-73.2h89.6l14-14.1c-0.6-0.9-1-2-1-3.1 0-3.1 2.5-5.6 5.6-5.6 3.1 0 5.6 2.5 5.6 5.6 0 3.1-2.5 5.6-5.6 5.6-1.2 0-2.3-0.4-3.2-1l-12.6 12.6h40l6.9-6.9h61.4l8-8c-0.8-1.1-1.3-2.4-1.3-3.9 0-3.6 3-6.6 6.6-6.6 3.7 0 6.7 3 6.7 6.6 0 3.7-3 6.6-6.7 6.6-1.4 0-2.8-0.5-3.9-1.3l-7.5 7.6 17.5 17.6h32c0.4-2.6 2.7-4.6 5.5-4.6 3.1 0 5.6 2.5 5.6 5.6zm-53.8-31.5c0 2.6 2.1 4.6 4.6 4.6 2.6 0 4.7-2 4.7-4.6 0-2.5-2.1-4.6-4.7-4.6-2.5 0-4.6 2.1-4.6 4.6z"/>
			<path id="&lt;Path&gt;" class="s0" d="m88.5 364.6c0-1.2-0.4-2.3-1-3.2l12.3-12.3v21.7c-2.6 0.4-4.6 2.7-4.6 5.5 0 3.1 2.5 5.6 5.6 5.6 3.1 0 5.6-2.5 5.6-5.6 0-2.8-2-5.1-4.6-5.5v-23.7l9.9-9.9h28.6c0.5 2.6 2.8 4.6 5.5 4.6 3.1 0 5.6-2.6 5.6-5.6 0-3.1-2.5-5.6-5.6-5.6-2.7 0-5 1.9-5.5 4.6h-29.4l-24.8 24.8c-0.9-0.6-2-1-3.2-1-3.1 0-5.6 2.5-5.6 5.6 0 3.1 2.5 5.6 5.6 5.6 3.1 0 5.6-2.5 5.6-5.6z"/>
		</g>
	</g>
</svg>